<svg width="872" height="343" viewBox="0 0 872 343" fill="none" xmlns="http://www.w3.org/2000/svg">
<path d="M147.553 143.061H114.995C114.4 138.849 113.186 135.107 111.353 131.837C109.519 128.516 107.165 125.692 104.291 123.363C101.417 121.033 98.0964 119.249 94.3301 118.011C90.6134 116.772 86.5746 116.152 82.2136 116.152C74.3342 116.152 67.4707 118.11 61.6231 122.025C55.7754 125.89 51.2411 131.539 48.0199 138.973C44.7988 146.357 43.1882 155.326 43.1882 165.882C43.1882 176.735 44.7988 185.853 48.0199 193.237C51.2906 200.621 55.8498 206.196 61.6974 209.962C67.545 213.728 74.3094 215.611 81.9906 215.611C86.302 215.611 90.2913 215.041 93.9585 213.902C97.6752 212.762 100.971 211.102 103.845 208.921C106.719 206.691 109.098 203.99 110.981 200.819C112.914 197.647 114.252 194.03 114.995 189.966L147.553 190.115C146.711 197.102 144.605 203.842 141.235 210.334C137.915 216.776 133.43 222.549 127.781 227.653C122.181 232.708 115.491 236.722 107.71 239.696C99.9795 242.619 91.2329 244.081 81.4703 244.081C67.8919 244.081 55.7507 241.009 45.0465 234.864C34.392 228.719 25.9674 219.824 19.7729 208.178C13.6279 196.532 10.5555 182.434 10.5555 165.882C10.5555 149.28 13.6775 135.157 19.9216 123.511C26.1656 111.866 34.6397 102.995 45.3439 96.8996C56.048 90.7546 68.0901 87.6822 81.4703 87.6822C90.2913 87.6822 98.4681 88.9211 106.001 91.3989C113.583 93.8767 120.298 97.4943 126.145 102.252C131.993 106.959 136.75 112.733 140.417 119.572C144.134 126.41 146.513 134.24 147.553 143.061ZM202.598 244.156C195.313 244.156 188.821 242.892 183.122 240.365C177.423 237.788 172.914 233.997 169.594 228.992C166.323 223.937 164.687 217.643 164.687 210.111C164.687 203.767 165.852 198.44 168.181 194.129C170.51 189.817 173.682 186.348 177.696 183.722C181.71 181.095 186.269 179.113 191.373 177.775C196.527 176.437 201.929 175.496 207.578 174.951C214.219 174.257 219.571 173.613 223.635 173.018C227.698 172.374 230.647 171.432 232.48 170.193C234.314 168.954 235.231 167.121 235.231 164.692V164.246C235.231 159.539 233.744 155.896 230.771 153.319C227.847 150.742 223.684 149.454 218.282 149.454C212.583 149.454 208.049 150.718 204.679 153.245C201.309 155.723 199.079 158.845 197.989 162.611L168.702 160.232C170.188 153.294 173.112 147.298 177.473 142.243C181.834 137.139 187.459 133.224 194.347 130.499C201.285 127.724 209.313 126.336 218.431 126.336C224.774 126.336 230.845 127.079 236.643 128.566C242.491 130.053 247.669 132.357 252.179 135.479C256.738 138.601 260.331 142.615 262.957 147.521C265.584 152.378 266.897 158.201 266.897 164.99V242H236.866V226.167H235.974C234.14 229.735 231.687 232.882 228.615 235.607C225.542 238.283 221.85 240.389 217.539 241.926C213.228 243.412 208.247 244.156 202.598 244.156ZM211.667 222.301C216.325 222.301 220.438 221.385 224.006 219.551C227.574 217.668 230.374 215.141 232.406 211.969C234.438 208.797 235.454 205.205 235.454 201.191V189.074C234.463 189.718 233.1 190.313 231.365 190.858C229.68 191.354 227.772 191.824 225.642 192.27C223.511 192.667 221.38 193.039 219.249 193.385C217.118 193.683 215.185 193.955 213.451 194.203C209.734 194.748 206.488 195.615 203.713 196.805C200.938 197.994 198.782 199.605 197.246 201.637C195.71 203.619 194.941 206.097 194.941 209.07C194.941 213.381 196.503 216.677 199.625 218.956C202.796 221.186 206.81 222.301 211.667 222.301ZM352.196 127.823V151.61H283.436V127.823H352.196ZM299.047 100.468H330.713V206.914C330.713 209.838 331.159 212.118 332.051 213.753C332.943 215.339 334.182 216.454 335.768 217.098C337.403 217.742 339.286 218.064 341.417 218.064C342.904 218.064 344.39 217.94 345.877 217.693C347.364 217.395 348.504 217.172 349.297 217.024L354.277 240.588C352.691 241.083 350.461 241.653 347.587 242.297C344.713 242.991 341.219 243.412 337.106 243.561C329.474 243.858 322.784 242.842 317.035 240.513C311.337 238.184 306.901 234.567 303.73 229.661C300.558 224.754 298.997 218.56 299.047 211.077V100.468ZM423.185 244.23C411.489 244.23 401.43 241.752 393.005 236.797C384.63 231.791 378.188 224.854 373.678 215.983C369.218 207.112 366.988 196.904 366.988 185.357C366.988 173.662 369.243 163.404 373.752 154.583C378.312 145.712 384.779 138.799 393.154 133.844C401.529 128.839 411.489 126.336 423.036 126.336C432.997 126.336 441.719 128.145 449.202 131.762C456.685 135.38 462.607 140.459 466.968 147.001C471.329 153.542 473.732 161.223 474.178 170.044H444.296C443.453 164.346 441.223 159.762 437.606 156.293C434.038 152.774 429.354 151.015 423.556 151.015C418.65 151.015 414.364 152.353 410.697 155.029C407.079 157.655 404.254 161.496 402.222 166.551C400.191 171.605 399.175 177.726 399.175 184.911C399.175 192.196 400.166 198.391 402.148 203.495C404.18 208.599 407.029 212.489 410.697 215.165C414.364 217.841 418.65 219.179 423.556 219.179C427.174 219.179 430.42 218.436 433.294 216.949C436.218 215.463 438.621 213.307 440.505 210.482C442.437 207.608 443.701 204.164 444.296 200.15H474.178C473.682 208.872 471.304 216.553 467.042 223.193C462.83 229.784 457.007 234.938 449.573 238.655C442.14 242.372 433.344 244.23 423.185 244.23ZM526.119 175.991V242H494.453V89.7635H525.227V147.967H526.565C529.142 141.228 533.305 135.95 539.053 132.134C544.802 128.269 552.012 126.336 560.684 126.336C568.613 126.336 575.527 128.07 581.424 131.539C587.37 134.959 591.979 139.89 595.25 146.332C598.57 152.725 600.205 160.381 600.156 169.301V242H568.49V174.951C568.539 167.914 566.755 162.438 563.137 158.523C559.569 154.608 554.564 152.65 548.122 152.65C543.811 152.65 539.995 153.567 536.674 155.401C533.404 157.234 530.827 159.91 528.944 163.429C527.11 166.898 526.169 171.085 526.119 175.991Z" fill="white"/>
<path d="M746.743 193.385V127.823H778.409V242H748.007V221.261H746.817C744.24 227.951 739.954 233.328 733.958 237.391C728.011 241.455 720.751 243.487 712.178 243.487C704.546 243.487 697.831 241.752 692.033 238.283C686.235 234.814 681.701 229.884 678.43 223.491C675.209 217.098 673.573 209.442 673.524 200.522V127.823H705.19V194.872C705.24 201.612 707.049 206.939 710.617 210.854C714.185 214.769 718.967 216.726 724.963 216.726C728.779 216.726 732.347 215.859 735.667 214.125C738.987 212.341 741.663 209.714 743.695 206.245C745.777 202.776 746.793 198.49 746.743 193.385ZM822.248 243.933C817.342 243.933 813.13 242.198 809.611 238.729C806.142 235.211 804.408 230.999 804.408 226.092C804.408 221.236 806.142 217.073 809.611 213.604C813.13 210.135 817.342 208.401 822.248 208.401C827.005 208.401 831.168 210.135 834.736 213.604C838.304 217.073 840.088 221.236 840.088 226.092C840.088 229.363 839.246 232.361 837.561 235.087C835.925 237.763 833.77 239.919 831.094 241.554C828.418 243.14 825.469 243.933 822.248 243.933Z" fill="#ECECEC"/>
<path d="M754.331 200.897V135.334H785.998V249.511H755.595V228.772H754.406C751.829 235.462 747.542 240.839 741.546 244.903C735.599 248.966 728.339 250.998 719.766 250.998C712.134 250.998 705.419 249.264 699.621 245.795C693.823 242.326 689.289 237.395 686.018 231.002C682.797 224.61 681.162 216.953 681.112 208.033V135.334H712.779V202.384C712.828 209.123 714.637 214.45 718.205 218.365C721.773 222.28 726.555 224.238 732.551 224.238C736.367 224.238 739.935 223.371 743.256 221.636C746.576 219.852 749.252 217.226 751.284 213.757C753.365 210.288 754.381 206.001 754.331 200.897ZM829.836 251.444C824.93 251.444 820.718 249.71 817.2 246.241C813.731 242.722 811.996 238.51 811.996 233.604C811.996 228.747 813.731 224.585 817.2 221.116C820.718 217.647 824.93 215.912 829.836 215.912C834.594 215.912 838.756 217.647 842.324 221.116C845.893 224.585 847.677 228.747 847.677 233.604C847.677 236.875 846.834 239.873 845.149 242.598C843.514 245.274 841.358 247.43 838.682 249.065C836.006 250.651 833.057 251.444 829.836 251.444Z" fill="black"/>
<path d="M759.339 205.069V139.506H791.005V253.683H760.602V232.944H759.413C756.836 239.634 752.55 245.011 746.553 249.074C740.606 253.138 733.346 255.17 724.773 255.17C717.142 255.17 710.427 253.435 704.629 249.966C698.831 246.497 694.296 241.567 691.026 235.174C687.804 228.781 686.169 221.125 686.119 212.205V139.506H717.786V206.555C717.835 213.295 719.644 218.622 723.212 222.537C726.78 226.452 731.562 228.409 737.559 228.409C741.375 228.409 744.943 227.542 748.263 225.808C751.583 224.024 754.259 221.397 756.291 217.928C758.372 214.459 759.388 210.173 759.339 205.069ZM834.844 255.616C829.938 255.616 825.725 253.881 822.207 250.412C818.738 246.894 817.003 242.682 817.003 237.776C817.003 232.919 818.738 228.756 822.207 225.287C825.725 221.819 829.938 220.084 834.844 220.084C839.601 220.084 843.764 221.819 847.332 225.287C850.9 228.756 852.684 232.919 852.684 237.776C852.684 241.046 851.841 244.044 850.157 246.77C848.521 249.446 846.365 251.602 843.689 253.237C841.013 254.823 838.065 255.616 834.844 255.616Z" fill="#87E9FF"/>
</svg>
