<svg width="313" height="313" viewBox="0 0 313 313" fill="none" xmlns="http://www.w3.org/2000/svg">
<path d="M205.954 21.6471C205.954 21.6471 157.501 4.41957 109.944 31.8509C62.387 59.2822 38.3736 113.725 17.7657 157.339C-2.84224 200.952 9.00168 245.323 45.3097 265.549C81.6177 285.775 106.301 255.959 157.232 254.507C208.164 253.054 221.879 260.335 264.172 231.564C306.464 202.793 314.07 134.84 280.736 84.5664C247.401 34.2923 205.954 21.6471 205.954 21.6471Z" fill="#9DDCFC"/>
<path opacity="0.7" d="M205.954 21.6471C205.954 21.6471 157.501 4.41957 109.944 31.8509C62.387 59.2822 38.3736 113.725 17.7657 157.339C-2.84224 200.952 9.00168 245.323 45.3097 265.549C81.6177 285.775 106.301 255.959 157.232 254.507C208.164 253.054 221.879 260.335 264.172 231.564C306.464 202.793 314.07 134.84 280.736 84.5664C247.401 34.2923 205.954 21.6471 205.954 21.6471Z" fill="white"/>
<path d="M101.412 16.2759V288.586" stroke="#676F74" stroke-linecap="round" stroke-linejoin="round"/>
<path d="M132.712 16.2759V288.586" stroke="#676F74" stroke-linecap="round" stroke-linejoin="round"/>
<path d="M152.118 16.2759V288.586" stroke="#676F74" stroke-linecap="round" stroke-linejoin="round"/>
<path d="M289.838 61.9741H179.662V289.212H289.838V61.9741Z" stroke="#676F74" stroke-linecap="round" stroke-linejoin="round"/>
<path d="M294.878 61.9741H289.657V289.212H294.878V61.9741Z" fill="#263238" stroke="#676F74" stroke-linecap="round" stroke-linejoin="round"/>
<path d="M289.744 83.0825H179.781V86.1124H289.744V83.0825Z" stroke="#676F74" stroke-linecap="round" stroke-linejoin="round"/>
<path d="M179.994 89.6431H289.212" stroke="#676F74" stroke-linecap="round" stroke-linejoin="round"/>
<path d="M195.938 63.6201H182.166V83.0261H195.938V63.6201Z" stroke="#676F74" stroke-linecap="round" stroke-linejoin="round"/>
<path d="M197.397 63.6201H195.938V83.0261H197.397V63.6201Z" stroke="#676F74" stroke-linecap="round" stroke-linejoin="round"/>
<path d="M212.84 63.6201H199.068V83.0261H212.84V63.6201Z" stroke="#676F74" stroke-linecap="round" stroke-linejoin="round"/>
<path d="M214.299 63.6201H212.84V83.0261H214.299V63.6201Z" stroke="#676F74" stroke-linecap="round" stroke-linejoin="round"/>
<path d="M228.565 67.082H217.247V83.0325H228.565V67.082Z" stroke="#676F74" stroke-linecap="round" stroke-linejoin="round"/>
<path d="M229.767 67.082H228.565V83.0325H229.767V67.082Z" stroke="#676F74" stroke-linecap="round" stroke-linejoin="round"/>
<path d="M246.644 63.6201H232.872V83.0261H246.644V63.6201Z" stroke="#676F74" stroke-linecap="round" stroke-linejoin="round"/>
<path d="M248.103 63.6201H246.644V83.0261H248.103V63.6201Z" stroke="#676F74" stroke-linecap="round" stroke-linejoin="round"/>
<path d="M263.803 67.082H252.485V83.0325H263.803V67.082Z" stroke="#676F74" stroke-linecap="round" stroke-linejoin="round"/>
<path d="M265.011 67.082H263.809V83.0325H265.011V67.082Z" stroke="#676F74" stroke-linecap="round" stroke-linejoin="round"/>
<path d="M280.705 67.082H269.387V83.0325H280.705V67.082Z" stroke="#676F74" stroke-linecap="round" stroke-linejoin="round"/>
<path d="M281.913 67.082H280.711V83.0325H281.913V67.082Z" stroke="#676F74" stroke-linecap="round" stroke-linejoin="round"/>
<path d="M289.744 115.635H179.781V118.665H289.744V115.635Z" stroke="#676F74" stroke-linecap="round" stroke-linejoin="round"/>
<path d="M179.994 122.195H289.212" stroke="#676F74" stroke-linecap="round" stroke-linejoin="round"/>
<path d="M195.819 94.5884H180.92V115.578H195.819V94.5884Z" stroke="#676F74" stroke-linecap="round" stroke-linejoin="round"/>
<path d="M197.397 94.5884H195.819V115.578H197.397V94.5884Z" stroke="#676F74" stroke-linecap="round" stroke-linejoin="round"/>
<path d="M212.84 96.1724H199.068V115.578H212.84V96.1724Z" stroke="#676F74" stroke-linecap="round" stroke-linejoin="round"/>
<path d="M214.299 96.1724H212.84V115.578H214.299V96.1724Z" stroke="#676F74" stroke-linecap="round" stroke-linejoin="round"/>
<path d="M229.742 96.1724H215.97V115.578H229.742V96.1724Z" stroke="#676F74" stroke-linecap="round" stroke-linejoin="round"/>
<path d="M231.201 96.1724H229.742V115.578H231.201V96.1724Z" stroke="#676F74" stroke-linecap="round" stroke-linejoin="round"/>
<path d="M246.444 96.4604H232.872V115.585H246.444V96.4604Z" stroke="#676F74" stroke-linecap="round" stroke-linejoin="round"/>
<path d="M247.884 96.4604H246.444V115.585H247.884V96.4604Z" stroke="#676F74" stroke-linecap="round" stroke-linejoin="round"/>
<path d="M263.703 98.2441H251.402V115.578H263.703V98.2441Z" stroke="#676F74" stroke-linecap="round" stroke-linejoin="round"/>
<path d="M265.005 98.2441H263.703V115.578H265.005V98.2441Z" stroke="#676F74" stroke-linecap="round" stroke-linejoin="round"/>
<path d="M283.228 92.2534H266.676V115.578H283.228V92.2534Z" stroke="#676F74" stroke-linecap="round" stroke-linejoin="round"/>
<path d="M284.98 92.2534H283.228V115.578H284.98V92.2534Z" stroke="#676F74" stroke-linecap="round" stroke-linejoin="round"/>
<path d="M289.744 148.187H179.781V151.216H289.744V148.187Z" stroke="#676F74" stroke-linecap="round" stroke-linejoin="round"/>
<path d="M179.994 154.747H289.212" stroke="#676F74" stroke-linecap="round" stroke-linejoin="round"/>
<path d="M195.938 128.724H182.166V148.13H195.938V128.724Z" stroke="#676F74" stroke-linecap="round" stroke-linejoin="round"/>
<path d="M197.397 128.724H195.938V148.13H197.397V128.724Z" stroke="#676F74" stroke-linecap="round" stroke-linejoin="round"/>
<path d="M212.84 128.724H199.068V148.13H212.84V128.724Z" stroke="#676F74" stroke-linecap="round" stroke-linejoin="round"/>
<path d="M214.299 128.724H212.84V148.13H214.299V128.724Z" stroke="#676F74" stroke-linecap="round" stroke-linejoin="round"/>
<path d="M229.742 128.724H215.97V148.13H229.742V128.724Z" stroke="#676F74" stroke-linecap="round" stroke-linejoin="round"/>
<path d="M231.201 128.724H229.742V148.13H231.201V128.724Z" stroke="#676F74" stroke-linecap="round" stroke-linejoin="round"/>
<path d="M246.794 130.734H234.443V148.137H246.794V130.734Z" stroke="#676F74" stroke-linecap="round" stroke-linejoin="round"/>
<path d="M248.103 130.734H246.794V148.137H248.103V130.734Z" stroke="#676F74" stroke-linecap="round" stroke-linejoin="round"/>
<path d="M263.546 128.724H249.774V148.13H263.546V128.724Z" stroke="#676F74" stroke-linecap="round" stroke-linejoin="round"/>
<path d="M265.004 128.724H263.546V148.13H265.004V128.724Z" stroke="#676F74" stroke-linecap="round" stroke-linejoin="round"/>
<path d="M280.448 128.724H266.676V148.13H280.448V128.724Z" stroke="#676F74" stroke-linecap="round" stroke-linejoin="round"/>
<path d="M281.907 128.724H280.448V148.13H281.907V128.724Z" stroke="#676F74" stroke-linecap="round" stroke-linejoin="round"/>
<path d="M289.744 180.739H179.781V183.769H289.744V180.739Z" stroke="#676F74" stroke-linecap="round" stroke-linejoin="round"/>
<path d="M179.994 187.299H289.212" stroke="#676F74" stroke-linecap="round" stroke-linejoin="round"/>
<path d="M195.938 161.276H182.166V180.682H195.938V161.276Z" stroke="#676F74" stroke-linecap="round" stroke-linejoin="round"/>
<path d="M197.397 161.276H195.938V180.682H197.397V161.276Z" stroke="#676F74" stroke-linecap="round" stroke-linejoin="round"/>
<path d="M212.84 161.276H199.068V180.682H212.84V161.276Z" stroke="#676F74" stroke-linecap="round" stroke-linejoin="round"/>
<path d="M214.299 161.276H212.84V180.682H214.299V161.276Z" stroke="#676F74" stroke-linecap="round" stroke-linejoin="round"/>
<path d="M229.742 161.276H215.97V180.682H229.742V161.276Z" stroke="#676F74" stroke-linecap="round" stroke-linejoin="round"/>
<path d="M231.201 161.276H229.742V180.682H231.201V161.276Z" stroke="#676F74" stroke-linecap="round" stroke-linejoin="round"/>
<path d="M246.644 161.276H232.872V180.682H246.644V161.276Z" stroke="#676F74" stroke-linecap="round" stroke-linejoin="round"/>
<path d="M248.103 161.276H246.644V180.682H248.103V161.276Z" stroke="#676F74" stroke-linecap="round" stroke-linejoin="round"/>
<path d="M263.546 161.276H249.774V180.682H263.546V161.276Z" stroke="#676F74" stroke-linecap="round" stroke-linejoin="round"/>
<path d="M265.004 161.276H263.546V180.682H265.004V161.276Z" stroke="#676F74" stroke-linecap="round" stroke-linejoin="round"/>
<path d="M280.448 161.276H266.676V180.682H280.448V161.276Z" stroke="#676F74" stroke-linecap="round" stroke-linejoin="round"/>
<path d="M281.907 161.276H280.448V180.682H281.907V161.276Z" stroke="#676F74" stroke-linecap="round" stroke-linejoin="round"/>
<path d="M289.744 213.291H179.781V216.32H289.744V213.291Z" stroke="#676F74" stroke-linecap="round" stroke-linejoin="round"/>
<path d="M179.994 219.851H289.212" stroke="#676F74" stroke-linecap="round" stroke-linejoin="round"/>
<path d="M195.938 193.828H182.166V213.234H195.938V193.828Z" stroke="#676F74" stroke-linecap="round" stroke-linejoin="round"/>
<path d="M197.397 193.828H195.938V213.234H197.397V193.828Z" stroke="#676F74" stroke-linecap="round" stroke-linejoin="round"/>
<path d="M212.84 193.828H199.068V213.234H212.84V193.828Z" stroke="#676F74" stroke-linecap="round" stroke-linejoin="round"/>
<path d="M214.299 193.828H212.84V213.234H214.299V193.828Z" stroke="#676F74" stroke-linecap="round" stroke-linejoin="round"/>
<path d="M229.742 193.828H215.97V213.234H229.742V193.828Z" stroke="#676F74" stroke-linecap="round" stroke-linejoin="round"/>
<path d="M231.201 193.828H229.742V213.234H231.201V193.828Z" stroke="#676F74" stroke-linecap="round" stroke-linejoin="round"/>
<path d="M246.644 193.828H232.872V213.234H246.644V193.828Z" stroke="#676F74" stroke-linecap="round" stroke-linejoin="round"/>
<path d="M248.103 193.828H246.644V213.234H248.103V193.828Z" stroke="#676F74" stroke-linecap="round" stroke-linejoin="round"/>
<path d="M263.546 193.828H249.774V213.234H263.546V193.828Z" stroke="#676F74" stroke-linecap="round" stroke-linejoin="round"/>
<path d="M265.004 193.828H263.546V213.234H265.004V193.828Z" stroke="#676F74" stroke-linecap="round" stroke-linejoin="round"/>
<path d="M280.448 193.828H266.676V213.234H280.448V193.828Z" stroke="#676F74" stroke-linecap="round" stroke-linejoin="round"/>
<path d="M281.907 193.828H280.448V213.234H281.907V193.828Z" stroke="#676F74" stroke-linecap="round" stroke-linejoin="round"/>
<path d="M289.744 245.843H179.781V248.873H289.744V245.843Z" stroke="#676F74" stroke-linecap="round" stroke-linejoin="round"/>
<path d="M179.994 252.403H289.212" stroke="#676F74" stroke-linecap="round" stroke-linejoin="round"/>
<path d="M195.938 226.38H182.166V245.786H195.938V226.38Z" stroke="#676F74" stroke-linecap="round" stroke-linejoin="round"/>
<path d="M197.397 226.38H195.938V245.786H197.397V226.38Z" stroke="#676F74" stroke-linecap="round" stroke-linejoin="round"/>
<path d="M212.84 226.38H199.068V245.786H212.84V226.38Z" stroke="#676F74" stroke-linecap="round" stroke-linejoin="round"/>
<path d="M214.299 226.38H212.84V245.786H214.299V226.38Z" stroke="#676F74" stroke-linecap="round" stroke-linejoin="round"/>
<path d="M229.742 226.38H215.97V245.786H229.742V226.38Z" stroke="#676F74" stroke-linecap="round" stroke-linejoin="round"/>
<path d="M231.201 226.38H229.742V245.786H231.201V226.38Z" stroke="#676F74" stroke-linecap="round" stroke-linejoin="round"/>
<path d="M246.644 226.38H232.872V245.786H246.644V226.38Z" stroke="#676F74" stroke-linecap="round" stroke-linejoin="round"/>
<path d="M248.103 226.38H246.644V245.786H248.103V226.38Z" stroke="#676F74" stroke-linecap="round" stroke-linejoin="round"/>
<path d="M263.546 226.38H249.774V245.786H263.546V226.38Z" stroke="#676F74" stroke-linecap="round" stroke-linejoin="round"/>
<path d="M265.004 226.38H263.546V245.786H265.004V226.38Z" stroke="#676F74" stroke-linecap="round" stroke-linejoin="round"/>
<path d="M280.448 226.38H266.676V245.786H280.448V226.38Z" stroke="#676F74" stroke-linecap="round" stroke-linejoin="round"/>
<path d="M281.907 226.38H280.448V245.786H281.907V226.38Z" stroke="#676F74" stroke-linecap="round" stroke-linejoin="round"/>
<path d="M289.744 278.395H179.781V281.424H289.744V278.395Z" stroke="#676F74" stroke-linecap="round" stroke-linejoin="round"/>
<path d="M179.994 284.955H289.212" stroke="#676F74" stroke-linecap="round" stroke-linejoin="round"/>
<path d="M195.938 258.932H182.166V278.338H195.938V258.932Z" stroke="#676F74" stroke-linecap="round" stroke-linejoin="round"/>
<path d="M197.397 258.932H195.938V278.338H197.397V258.932Z" stroke="#676F74" stroke-linecap="round" stroke-linejoin="round"/>
<path d="M212.84 258.932H199.068V278.338H212.84V258.932Z" stroke="#676F74" stroke-linecap="round" stroke-linejoin="round"/>
<path d="M214.299 258.932H212.84V278.338H214.299V258.932Z" stroke="#676F74" stroke-linecap="round" stroke-linejoin="round"/>
<path d="M229.742 258.932H215.97V278.338H229.742V258.932Z" stroke="#676F74" stroke-linecap="round" stroke-linejoin="round"/>
<path d="M231.201 258.932H229.742V278.338H231.201V258.932Z" stroke="#676F74" stroke-linecap="round" stroke-linejoin="round"/>
<path d="M246.644 258.932H232.872V278.338H246.644V258.932Z" stroke="#676F74" stroke-linecap="round" stroke-linejoin="round"/>
<path d="M248.103 258.932H246.644V278.338H248.103V258.932Z" stroke="#676F74" stroke-linecap="round" stroke-linejoin="round"/>
<path d="M263.546 258.932H249.774V278.338H263.546V258.932Z" stroke="#676F74" stroke-linecap="round" stroke-linejoin="round"/>
<path d="M265.004 258.932H263.546V278.338H265.004V258.932Z" stroke="#676F74" stroke-linecap="round" stroke-linejoin="round"/>
<path d="M280.448 258.932H266.676V278.338H280.448V258.932Z" stroke="#676F74" stroke-linecap="round" stroke-linejoin="round"/>
<path d="M281.907 258.932H280.448V278.338H281.907V258.932Z" stroke="#676F74" stroke-linecap="round" stroke-linejoin="round"/>
<path d="M121.519 128.33H112.605V167.975H121.519V128.33Z" fill="#263238" stroke="#263238" stroke-linecap="round" stroke-linejoin="round"/>
<path d="M143.567 112.474H90.5635V152.118H143.567V112.474Z" fill="#263238" stroke="#263238" stroke-linecap="round" stroke-linejoin="round"/>
<path d="M139.523 115.491H94.6011V149.094H139.523V115.491Z" fill="#E5E5E5" stroke="#263238" stroke-linecap="round" stroke-linejoin="round"/>
<path d="M174.204 281.155L173.484 289.212H143.937C143.937 289.212 143.223 285.988 144.832 284.736C146.441 283.484 152.344 282.407 153.596 282.05C154.848 281.694 157.352 279.722 157.352 279.722L174.204 281.155Z" fill="#263238" stroke="#263238" stroke-linecap="round" stroke-linejoin="round"/>
<path d="M173.64 287.372L173.483 289.212H143.936C143.819 288.614 143.769 288.006 143.786 287.397C152.256 287.365 168.262 287.334 173.64 287.372Z" fill="#919191" stroke="#263238" stroke-linecap="round" stroke-linejoin="round"/>
<path d="M174.028 196.996C174.028 196.996 173.133 218.123 173.133 223.676C173.133 229.229 177.609 239.614 177.791 245.699C177.972 251.783 174.742 277.574 174.742 277.574L161.314 277.393C161.314 277.393 160.256 266.676 159.874 256.447C159.493 246.218 155.398 221.529 154.503 213.291C153.608 205.052 151.636 196.276 151.636 196.276L174.028 196.996Z" fill="#263238" stroke="#263238" stroke-linecap="round" stroke-linejoin="round"/>
<path d="M176.35 275.784L175.274 281.694L161.308 280.974V274.351L176.35 275.784Z" fill="#919191" stroke="#263238" stroke-linecap="round" stroke-linejoin="round"/>
<path d="M177.784 182.848C177.784 182.848 176.169 190.905 175.455 194.486C174.742 198.066 171.155 207.563 170.979 211.676C170.804 215.789 169.364 231.376 169.364 239.971C169.364 248.566 169.007 250.713 167.217 258.056C165.427 265.399 163.636 277.218 163.636 277.218C160.94 277.283 158.243 277.103 155.58 276.68C152.678 276.25 149.883 275.277 147.342 273.812L147.16 270.413C147.16 270.413 146.265 265.574 145.908 264.153C145.551 262.732 148.055 256.272 148.055 255.558C148.055 254.845 146.09 252.51 145.37 248.929C144.65 245.348 142.146 224.221 142.146 221.172C142.146 218.124 141.075 197.002 141.075 197.002C141.075 197.002 138.922 183.393 138.922 181.778C138.922 180.163 168.112 179.988 172.945 179.631C177.778 179.274 179.393 180.163 177.784 182.848Z" fill="#919191" stroke="#263238" stroke-linecap="round" stroke-linejoin="round"/>
<path d="M152.744 186.786C152.744 186.786 156.682 193.233 161.339 195.205" stroke="#263238" stroke-linecap="round" stroke-linejoin="round"/>
<path d="M159.442 210.611L159.161 212.039" stroke="#263238" stroke-linecap="round" stroke-linejoin="round"/>
<path d="M163.994 187.506L159.943 208.076" stroke="#263238" stroke-linecap="round" stroke-linejoin="round"/>
<path d="M167.768 212.934C165.037 213.323 162.287 213.561 159.53 213.648H148.594L148.418 217.585C151.424 218.165 154.486 218.406 157.546 218.305C160.975 218.135 164.387 217.716 167.756 217.053L167.768 212.934Z" stroke="#263238" stroke-linecap="round" stroke-linejoin="round"/>
<path d="M167.768 217.053C167.768 217.053 167.411 224.033 167.587 229.228C167.762 234.424 165.621 235.313 163.292 235.313C160.964 235.313 150.578 236.565 149.145 235.495C147.711 234.424 147.173 231.557 147.711 229.235C148.25 226.912 148.431 217.591 148.431 217.591" stroke="#263238" stroke-linecap="round" stroke-linejoin="round"/>
<path d="M162.56 282.952L162.022 289.212H132.481C132.481 289.212 131.761 285.988 133.376 284.736C134.991 283.484 140.888 282.407 142.14 282.05C143.392 281.694 145.896 279.722 145.896 279.722L162.56 282.952Z" fill="#263238" stroke="#263238" stroke-linecap="round" stroke-linejoin="round"/>
<path d="M162.184 287.372L162.021 289.212H132.48C132.36 288.615 132.307 288.006 132.324 287.397C140.794 287.365 156.8 287.334 162.184 287.372Z" fill="white" stroke="#263238" stroke-linecap="round" stroke-linejoin="round"/>
<path d="M165.608 274.889C165.608 274.889 165.245 283.127 163.812 283.484C162.378 283.841 144.118 280.798 143.936 279.365C143.755 277.931 145.551 275.246 145.727 274.357C145.902 273.468 145.908 272.028 146.622 270.958C147.335 269.887 160.951 273.099 165.608 274.889Z" fill="white" stroke="#263238" stroke-linecap="round" stroke-linejoin="round"/>
<path d="M91.7218 163.636C91.7218 163.636 88.8297 164.375 88.0284 165.051C87.2271 165.727 86.1504 167.511 86.4947 168.244C86.839 168.976 87.4775 168.676 87.7467 168.306C88.4393 167.239 89.3145 166.303 90.3321 165.539C91.4202 164.892 92.5494 164.317 93.7125 163.818C93.0979 163.5 92.3836 163.435 91.7218 163.636Z" fill="#E5E5E5" stroke="#263238" stroke-linecap="round" stroke-linejoin="round"/>
<path d="M144.137 120.104L131.679 148.75C131.679 148.75 127.529 150.415 119.222 153.527C110.915 156.638 102.201 160.588 100.123 161.208C98.0445 161.827 93.0678 162.867 90.5763 164.338C88.0848 165.809 85.9376 168.789 87.5965 168.995C88.1787 169.07 88.2225 169.671 89.6874 169.49C90.2803 169.361 90.8314 169.086 91.2899 168.688C92.3906 167.863 93.6222 167.228 94.9333 166.81C96.7323 166.337 98.6091 166.237 100.448 166.516C101.279 166.634 102.122 166.634 102.952 166.516C103.927 165.86 104.852 165.131 105.719 164.338C105.719 164.338 120.249 163.086 126.064 162.053C131.88 161.02 140.594 158.109 140.594 158.109L149.94 120.324L144.137 120.104Z" fill="white" stroke="#263238" stroke-linecap="round" stroke-linejoin="round"/>
<path d="M94.7263 164.325C94.7263 164.325 88.7042 166.397 88.291 168.889" stroke="#263238" stroke-linecap="round" stroke-linejoin="round"/>
<path d="M105.731 164.325C104.849 165.191 103.873 165.955 102.821 166.604C101.368 167.436 99.5028 167.023 98.0505 167.856C96.5981 168.688 96.1725 169.308 94.5198 169.108C92.8672 168.908 92.8547 167.449 94.933 166.829C95.8716 166.595 96.7778 166.246 97.631 165.79L98.883 164.338" fill="white"/>
<path d="M105.731 164.325C104.849 165.191 103.873 165.955 102.821 166.604C101.368 167.436 99.5028 167.023 98.0505 167.856C96.5981 168.688 96.1725 169.308 94.5198 169.108C92.8672 168.908 92.8547 167.449 94.933 166.829C95.8716 166.595 96.7778 166.246 97.631 165.79L98.883 164.338" stroke="#263238" stroke-linecap="round" stroke-linejoin="round"/>
<path d="M114.84 130.596L73.1672 131.423L67.3955 168.087L118.552 168.501L114.84 130.596Z" fill="#9DDCFC" stroke="#263238" stroke-linecap="round" stroke-linejoin="round"/>
<path d="M109.901 168.087L111.547 130.596L90.1441 155.874L73.167 131.423" stroke="#263238" stroke-linecap="round" stroke-linejoin="round"/>
<path d="M167.399 98.1507C167.399 98.1507 170.798 99.4027 175.812 104.06C180.826 108.718 184.764 120.893 185.302 127.341C185.841 133.789 181.903 153.483 181.903 158.316C181.903 163.148 180.47 183.925 179.75 184.464C179.03 185.002 156.475 186.786 146.446 186.254C136.418 185.722 135.88 181.772 134.809 178.016C133.739 174.26 133.012 164.407 134.628 153.126C136.243 141.845 138.208 127.16 142.684 119.641C147.16 112.123 150.196 108.179 153.952 104.774C157.708 101.368 164.713 97.7938 167.399 98.1507Z" fill="#263238" stroke="#263238" stroke-linecap="round" stroke-linejoin="round"/>
<path d="M160.707 138.321L152.174 137.776V123.435L160.707 123.979V138.321Z" fill="#9DDCFC"/>
<path d="M157.439 121.438H155.805V125.794H157.439V121.438Z" fill="white" stroke="#263238" stroke-linecap="round" stroke-linejoin="round"/>
<path d="M158.891 135.291L153.99 134.815V127.372L158.891 127.848V135.291Z" fill="white"/>
<path d="M160.776 120.411L173.753 149.27L150.102 160.425C150.102 160.425 136.606 160.5 135.554 160.319C134.503 160.137 125.238 165.953 124.768 166.454C124.705 166.521 124.656 166.601 124.624 166.687C124.593 166.774 124.579 166.866 124.583 166.959C124.588 167.051 124.611 167.141 124.652 167.225C124.692 167.308 124.749 167.382 124.818 167.443C124.818 167.443 123.648 168.544 124.468 169.177L125.282 169.803C125.282 169.803 125.194 170.329 126.383 170.973C127.573 171.618 128.117 171.324 128.117 171.324C128.901 171.156 129.669 170.924 130.415 170.629C131.41 170.203 134.434 167.787 134.96 167.881C135.485 167.975 141.376 168.82 143.724 168.732C146.071 168.645 147.88 166.347 147.88 166.347C147.88 166.347 168.194 166.091 175.142 164.238C182.091 162.385 190.724 157.402 192.289 155.549C193.854 153.696 188.32 129.601 186.348 124.311C184.376 119.022 181.277 113.331 180.395 112.474" fill="#263238"/>
<path d="M160.776 120.411L173.753 149.27L150.102 160.425C150.102 160.425 136.606 160.5 135.554 160.319C134.503 160.137 125.238 165.953 124.768 166.454C124.705 166.521 124.656 166.601 124.624 166.687C124.593 166.774 124.579 166.866 124.583 166.959C124.588 167.051 124.611 167.141 124.652 167.225C124.692 167.308 124.749 167.382 124.818 167.443C124.818 167.443 123.648 168.544 124.468 169.177L125.282 169.803C125.282 169.803 125.194 170.329 126.383 170.973C127.573 171.618 128.117 171.324 128.117 171.324C128.901 171.156 129.669 170.924 130.415 170.629C131.41 170.203 134.434 167.787 134.96 167.881C135.485 167.975 141.376 168.82 143.724 168.732C146.071 168.645 147.88 166.347 147.88 166.347C147.88 166.347 168.194 166.091 175.142 164.238C182.091 162.385 190.724 157.402 192.289 155.549C193.854 153.696 188.32 129.601 186.348 124.311C184.376 119.022 181.277 113.331 180.395 112.474" stroke="#263238" stroke-linecap="round" stroke-linejoin="round"/>
<path d="M128.117 171.324C128.117 171.324 127.579 171.612 126.383 170.973C125.188 170.335 125.282 169.803 125.282 169.803L124.468 169.177C123.648 168.551 124.818 167.443 124.818 167.443C124.749 167.382 124.692 167.308 124.652 167.224C124.611 167.141 124.588 167.051 124.583 166.959C124.579 166.866 124.593 166.774 124.624 166.687C124.656 166.6 124.705 166.521 124.768 166.453C125.238 165.94 134.496 160.137 135.554 160.319C136.612 160.5 150.102 160.425 150.102 160.425L173.753 149.27L168.294 137.125L187.7 128.75C190.091 137.545 193.584 154.034 192.295 155.549C190.73 157.427 182.097 162.384 175.149 164.237C168.2 166.09 147.886 166.347 147.886 166.347C147.886 166.347 146.077 168.644 143.73 168.732C141.382 168.82 135.485 167.968 134.966 167.881C134.446 167.793 131.416 170.203 130.415 170.629C129.67 170.924 128.901 171.157 128.117 171.324Z" fill="white" stroke="#263238" stroke-linecap="round" stroke-linejoin="round"/>
<path d="M124.818 167.443L132.193 163.417" stroke="#263238" stroke-linecap="round" stroke-linejoin="round"/>
<path d="M125.507 169.577L132.43 164.951" stroke="#263238" stroke-linecap="round" stroke-linejoin="round"/>
<path d="M127.266 171.299C127.226 171.213 127.203 171.121 127.2 171.027C127.196 170.933 127.212 170.839 127.246 170.751C127.28 170.663 127.331 170.583 127.397 170.516C127.463 170.449 127.542 170.395 127.629 170.36C128.255 170.072 133.332 166.428 133.332 166.428" stroke="#263238" stroke-linecap="round" stroke-linejoin="round"/>
<path d="M148.481 102.77L151.492 105.074C151.492 105.074 146.002 115.716 148.481 116.236C150.96 116.755 159.468 105.431 162.654 101.706C165.84 97.9816 167.399 98.1506 167.399 98.1506C167.399 98.1506 163.543 93.7686 162.122 90.3694C160.701 86.9702 160 84.8794 160 84.8794L148.481 102.77Z" fill="white" stroke="#263238" stroke-linecap="round" stroke-linejoin="round"/>
<path d="M138.309 75.214C138.309 75.214 138.008 89.1926 138.403 91.659C138.797 94.1255 142.209 100.974 143.505 102.451C144.8 103.929 150.103 104.141 152.031 102.99C153.959 101.838 158.867 95.5715 159.737 93.1051C160.264 91.6286 160.586 90.0868 160.695 88.5228C160.695 88.5228 163.774 89.299 165.515 85.6432C167.255 81.9873 165.515 79.0952 163.224 79.2517L161.264 80.197C161.264 80.197 163.95 73.2296 162.26 70.5441C160.569 67.8585 145.577 69.1982 142.49 69.6864C139.404 70.1747 138.309 75.214 138.309 75.214Z" fill="white" stroke="#263238" stroke-linecap="round" stroke-linejoin="round"/>
<path d="M149.439 83.2579C149.439 83.2579 151.536 81.6867 153.627 82.9074" stroke="#263238" stroke-linecap="round" stroke-linejoin="round"/>
<path d="M139.316 82.2065C139.316 82.2065 141.933 81.5116 142.446 83.4585" stroke="#263238" stroke-linecap="round" stroke-linejoin="round"/>
<path d="M141.626 83.0453C141.626 83.2261 141.573 83.4028 141.472 83.5531C141.372 83.7034 141.229 83.8205 141.062 83.8897C140.895 83.9589 140.711 83.977 140.534 83.9417C140.357 83.9064 140.194 83.8194 140.066 83.6916C139.938 83.5638 139.851 83.4009 139.816 83.2236C139.781 83.0463 139.799 82.8626 139.868 82.6956C139.937 82.5286 140.054 82.3858 140.205 82.2854C140.355 82.185 140.532 82.1313 140.712 82.1313C140.954 82.133 141.186 82.2298 141.357 82.4009C141.528 82.5719 141.625 82.8034 141.626 83.0453Z" fill="#263238"/>
<path d="M152.043 83.577C152.043 83.7578 151.99 83.9345 151.889 84.0848C151.789 84.2351 151.646 84.3523 151.479 84.4214C151.312 84.4906 151.128 84.5087 150.951 84.4734C150.774 84.4382 150.611 84.3511 150.483 84.2233C150.355 84.0955 150.268 83.9326 150.233 83.7553C150.198 83.5781 150.216 83.3943 150.285 83.2273C150.354 83.0603 150.471 82.9175 150.622 82.8171C150.772 82.7167 150.949 82.6631 151.129 82.6631C151.372 82.6631 151.604 82.7594 151.776 82.9308C151.947 83.1022 152.043 83.3346 152.043 83.577Z" fill="#263238"/>
<path d="M151.004 75.9775L154.522 76.9102C154.644 76.9411 154.759 76.9973 154.858 77.0753C154.957 77.1532 155.039 77.2511 155.098 77.3626C155.157 77.4741 155.192 77.5968 155.2 77.7227C155.209 77.8486 155.191 77.9748 155.148 78.0934L155.06 78.3312C154.978 78.5538 154.813 78.7356 154.599 78.8384C154.385 78.9412 154.14 78.9569 153.915 78.8821L150.49 77.7115C150.376 77.673 150.27 77.6118 150.179 77.5315C150.089 77.4513 150.015 77.3536 149.963 77.2444C149.911 77.1351 149.882 77.0166 149.877 76.8957C149.872 76.7748 149.891 76.6542 149.933 76.5409C150.01 76.331 150.162 76.1571 150.36 76.053C150.558 75.9489 150.787 75.9219 151.004 75.9775Z" fill="#263238" stroke="#263238" stroke-linecap="round" stroke-linejoin="round"/>
<path d="M143.229 76.3718V76.4281C143.27 76.5182 143.292 76.6157 143.294 76.7147C143.297 76.8136 143.279 76.912 143.242 77.0038C143.205 77.0957 143.15 77.1791 143.08 77.2491C143.01 77.3191 142.926 77.3741 142.835 77.4109L140.393 78.3875C140.29 78.4283 140.18 78.4454 140.069 78.4377C139.959 78.43 139.852 78.3976 139.756 78.3429C139.66 78.2882 139.577 78.2127 139.514 78.1218C139.451 78.0309 139.409 77.927 139.392 77.8178C139.367 77.6564 139.397 77.4915 139.476 77.3488C139.556 77.2061 139.68 77.0937 139.83 77.0291L142.246 75.9962C142.335 75.9556 142.432 75.9331 142.529 75.93C142.627 75.927 142.725 75.9434 142.816 75.9784C142.908 76.0133 142.991 76.0661 143.062 76.1336C143.133 76.2012 143.19 76.2821 143.229 76.3718Z" fill="#263238" stroke="#263238" stroke-linecap="round" stroke-linejoin="round"/>
<path d="M151.974 89.6182C151.974 89.6182 150.472 92.8796 146.165 92.6042" stroke="#263238" stroke-linecap="round" stroke-linejoin="round"/>
<path d="M143.867 79.9404C143.867 79.9404 143.298 88.4227 143.241 89.1113C143.185 89.7999 145.038 91.7155 146.453 90.2507C147.237 89.5377 147.761 88.584 147.943 87.5401" fill="white"/>
<path d="M143.867 79.9404C143.867 79.9404 143.298 88.4227 143.241 89.1113C143.185 89.7999 145.038 91.7155 146.453 90.2507C147.237 89.5377 147.761 88.584 147.943 87.5401" stroke="#263238" stroke-linecap="round" stroke-linejoin="round"/>
<path d="M143.767 79.7021C143.269 79.0691 142.618 78.5729 141.876 78.2601C141.134 77.9473 140.324 77.8281 139.523 77.9136C138.722 77.9992 137.956 78.2868 137.296 78.7494C136.637 79.212 136.106 79.8345 135.753 80.5585C135.399 81.2825 135.236 82.0843 135.277 82.8888C135.319 83.6933 135.564 84.4741 135.989 85.158C136.415 85.8419 137.007 86.4066 137.711 86.7991C138.414 87.1915 139.206 87.399 140.011 87.4019C140.669 87.439 141.326 87.312 141.923 87.0322C142.519 86.7525 143.037 86.3288 143.429 85.7993L143.767 79.7021Z" stroke="#263238" stroke-linecap="round" stroke-linejoin="round"/>
<path d="M151.517 87.4019C154.145 87.4019 156.275 85.2719 156.275 82.6443C156.275 80.0168 154.145 77.8867 151.517 77.8867C148.89 77.8867 146.76 80.0168 146.76 82.6443C146.76 85.2719 148.89 87.4019 151.517 87.4019Z" stroke="#263238" stroke-linecap="round" stroke-linejoin="round"/>
<path d="M156.293 81.6929L163.699 79.3955" stroke="#263238" stroke-linecap="round" stroke-linejoin="round"/>
<path d="M135.323 82.1123L138.14 81.5864" stroke="#263238" stroke-linecap="round" stroke-linejoin="round"/>
<path d="M143.767 80.7539C144.239 80.4845 144.781 80.3609 145.324 80.3988C145.866 80.4367 146.385 80.6343 146.816 80.9668" stroke="#263238" stroke-linecap="round" stroke-linejoin="round"/>
<path d="M161.796 62.3871C161.796 62.3871 168.006 66.8818 166.673 71.7396C165.339 76.5973 161.54 85.8559 161.54 85.8559L160.507 86.0186L160.156 82.488C160.156 82.488 156.663 81.7806 156.82 78.8009C156.903 77.0415 157.346 75.3178 158.122 73.7365C158.122 73.7365 155.054 76.998 150.866 76.998C146.678 76.998 144.012 72.3906 142.835 74.2686C141.658 76.1466 139.554 77.5363 134.872 75.9651C130.19 74.3938 122.652 64.1963 126.891 60.3526C131.129 56.509 139.529 61.4982 142.096 61.7236C144.663 61.9489 145.852 57.5356 151.68 58.2931C155.328 58.8407 158.794 60.2436 161.796 62.3871Z" fill="#263238" stroke="#263238" stroke-linecap="round" stroke-linejoin="round"/>
<path d="M180.539 166.366H46.4995V289.406H180.539V166.366Z" fill="white" stroke="#263238" stroke-linecap="round" stroke-linejoin="round"/>
<path d="M180.539 166.366H46.4995V174.648H180.539V166.366Z" fill="#263238" stroke="#263238" stroke-linecap="round" stroke-linejoin="round"/>
<path d="M180.538 166.366H138.127V289.406H180.538V166.366Z" stroke="#263238" stroke-linecap="round" stroke-linejoin="round"/>
<path d="M186.298 166.366H40.7402V171.08H186.298V166.366Z" fill="white" stroke="#263238" stroke-linecap="round" stroke-linejoin="round"/>
<path d="M186.291 166.366H132.887V171.08H186.291V166.366Z" fill="white" stroke="#263238" stroke-linecap="round" stroke-linejoin="round"/>
<path d="M210.812 112.68C210.812 112.68 210.693 109.488 209.341 107.278C207.989 105.068 203.081 103.472 200.508 104.58C199.203 105.114 197.932 105.729 196.702 106.42C199.265 107.223 201.702 108.38 203.945 109.857C206.016 111.259 208.354 112.22 210.812 112.68Z" fill="#9DDCFC" stroke="#263238" stroke-linecap="round" stroke-linejoin="round"/>
<path d="M215.97 114.289C215.97 114.289 213.022 111.466 212.533 107.534C212.045 103.603 216.214 97.4746 216.214 97.4746C217.594 100.095 218.703 102.849 219.526 105.694C220.759 110.114 215.97 114.289 215.97 114.289Z" fill="#9DDCFC" stroke="#263238" stroke-linecap="round" stroke-linejoin="round"/>
<path d="M221.604 113.062C221.604 113.062 220.866 109.381 222.23 106.802C223.595 104.223 227.138 104.467 230.7 105.55C234.262 106.633 235.364 106.652 235.364 106.652C232.909 108.297 230.321 109.733 227.627 110.946C225.669 111.786 223.657 112.493 221.604 113.062Z" fill="#9DDCFC" stroke="#263238" stroke-linecap="round" stroke-linejoin="round"/>
<path d="M216.001 126.289C215.917 126.289 215.835 126.256 215.776 126.196C215.716 126.136 215.682 126.055 215.682 125.97V108.442C215.697 108.37 215.736 108.305 215.793 108.258C215.85 108.211 215.921 108.186 215.995 108.186C216.069 108.186 216.14 108.211 216.197 108.258C216.254 108.305 216.294 108.37 216.308 108.442V125.97C216.308 126.052 216.276 126.132 216.219 126.191C216.162 126.251 216.084 126.286 216.001 126.289Z" fill="#263238"/>
<path d="M217.479 126.29H217.429C217.346 126.277 217.272 126.233 217.222 126.166C217.171 126.099 217.149 126.016 217.16 125.933C217.222 125.495 218.706 115.097 223.739 109.319C223.767 109.287 223.8 109.261 223.838 109.242C223.875 109.224 223.916 109.213 223.958 109.21C224 109.207 224.042 109.212 224.082 109.226C224.121 109.239 224.158 109.26 224.19 109.287C224.222 109.315 224.247 109.348 224.266 109.386C224.285 109.424 224.296 109.464 224.299 109.506C224.302 109.548 224.296 109.59 224.283 109.63C224.27 109.67 224.249 109.707 224.221 109.738C219.307 115.372 217.805 125.914 217.792 126.014C217.78 126.089 217.743 126.158 217.686 126.209C217.628 126.259 217.555 126.288 217.479 126.29Z" fill="#263238"/>
<path d="M214.53 126.039C214.489 126.039 214.448 126.031 214.409 126.015C214.371 125.998 214.336 125.975 214.307 125.945C214.278 125.915 214.255 125.88 214.239 125.841C214.224 125.803 214.217 125.761 214.217 125.72C214.217 125.62 214.268 115.629 208.321 110.877C208.254 110.824 208.212 110.747 208.202 110.662C208.193 110.578 208.217 110.493 208.27 110.427C208.324 110.36 208.401 110.318 208.485 110.308C208.57 110.299 208.655 110.323 208.721 110.376C214.906 115.328 214.856 125.307 214.856 125.726C214.855 125.768 214.846 125.809 214.829 125.848C214.812 125.886 214.788 125.921 214.758 125.95C214.728 125.979 214.692 126.002 214.653 126.017C214.614 126.032 214.572 126.04 214.53 126.039Z" fill="#263238"/>
<path d="M219.438 125.92H219.357C219.276 125.898 219.206 125.845 219.164 125.772C219.122 125.7 219.11 125.613 219.131 125.532C219.756 123.39 220.726 121.364 222.005 119.535C222.055 119.467 222.129 119.422 222.213 119.409C222.296 119.396 222.381 119.417 222.449 119.466C222.516 119.517 222.56 119.592 222.573 119.675C222.585 119.757 222.566 119.842 222.518 119.911C221.289 121.677 220.352 123.63 219.745 125.695C219.725 125.76 219.684 125.818 219.629 125.858C219.573 125.899 219.507 125.921 219.438 125.92Z" fill="#263238"/>
<path d="M221.373 121.037C221.373 121.037 221.248 117.6 222.719 117.112C224.19 116.624 225.542 117.845 226.65 118.583C227.758 119.322 228.979 120.054 228.979 122.264C228.853 124.37 228.566 126.462 228.121 128.524C228.121 128.524 226.869 124.718 224.81 123.003C222.75 121.288 221.373 121.037 221.373 121.037Z" fill="#9DDCFC" stroke="#263238" stroke-linecap="round" stroke-linejoin="round"/>
<path d="M212.321 126.039C212.253 126.042 212.187 126.021 212.132 125.982C212.078 125.942 212.038 125.885 212.02 125.82C211.378 123.983 210.272 122.344 208.809 121.062C208.756 121.006 208.724 120.933 208.721 120.856C208.718 120.779 208.742 120.703 208.79 120.643C208.838 120.583 208.907 120.542 208.983 120.528C209.058 120.514 209.137 120.528 209.203 120.568C210.77 121.921 211.95 123.667 212.621 125.626C212.635 125.666 212.64 125.708 212.637 125.75C212.634 125.792 212.622 125.833 212.603 125.87C212.584 125.907 212.557 125.941 212.525 125.967C212.492 125.994 212.455 126.014 212.414 126.026C212.384 126.037 212.352 126.041 212.321 126.039Z" fill="#263238"/>
<path d="M210.812 122.145C210.812 122.145 211.307 119.936 210.08 118.339C208.853 116.743 205.904 117.087 204.446 118.828C202.987 120.568 200.884 125.714 200.884 125.714C200.884 125.714 203.832 123.385 207.269 123.385C210.706 123.385 210.812 122.145 210.812 122.145Z" fill="#9DDCFC" stroke="#263238" stroke-linecap="round" stroke-linejoin="round"/>
<path d="M220.597 144.857H210.8L205.904 128.656H225.492L220.597 144.857Z" fill="white" stroke="#263238" stroke-linecap="round" stroke-linejoin="round"/>
<path d="M225.548 125.97H205.848V128.656H225.548V125.97Z" fill="white" stroke="#263238" stroke-linecap="round" stroke-linejoin="round"/>
<path d="M263.327 144.719H239.452V192.958H263.327V144.719Z" fill="#263238" stroke="#263238" stroke-linecap="round" stroke-linejoin="round"/>
<path d="M242.237 144.719H171.036V192.958H242.237V144.719Z" fill="white" stroke="#263238" stroke-linecap="round" stroke-linejoin="round"/>
<path d="M238.638 148.03H174.71V189.321H238.638V148.03Z" fill="#E5E5E5" stroke="#263238" stroke-linecap="round" stroke-linejoin="round"/>
<path d="M238.638 148.03H206.186V189.321H238.638V148.03Z" fill="#E5E5E5" stroke="#263238" stroke-linecap="round" stroke-linejoin="round"/>
<path d="M238.638 167.305H174.71V170.04H238.638V167.305Z" fill="white" stroke="#263238" stroke-linecap="round" stroke-linejoin="round"/>
<path d="M279.828 192.915H255.953V241.154H279.828V192.915Z" fill="#263238" stroke="#263238" stroke-linecap="round" stroke-linejoin="round"/>
<path d="M147.893 213.942L155.643 240.935H140.681L147.893 213.942Z" fill="#263238" stroke="#263238" stroke-linecap="round" stroke-linejoin="round"/>
<path d="M148.487 211.093L147.498 210.205L121.851 240.935H142.966L148.487 211.093Z" fill="white" stroke="#263238" stroke-linecap="round" stroke-linejoin="round"/>
<path d="M147.498 210.205H126.383L120.799 240.935H141.908L147.498 210.205Z" fill="#9DDCFC" stroke="#263238" stroke-linecap="round" stroke-linejoin="round"/>
<path d="M128.981 216.208H142.491" stroke="#263238" stroke-linecap="round" stroke-linejoin="round"/>
<path d="M128.111 219.695H141.614" stroke="#263238" stroke-linecap="round" stroke-linejoin="round"/>
<path d="M127.241 223.182H140.744" stroke="#263238" stroke-linecap="round" stroke-linejoin="round"/>
<path d="M258.732 192.915H151.467V241.154H258.732V192.915Z" fill="white" stroke="#263238" stroke-linecap="round" stroke-linejoin="round"/>
<path d="M255.145 196.226H155.148V237.517H255.145V196.226Z" fill="#E5E5E5" stroke="#263238" stroke-linecap="round" stroke-linejoin="round"/>
<path d="M255.146 196.226H179.13V237.517H255.146V196.226Z" fill="white" stroke="#263238" stroke-linecap="round" stroke-linejoin="round"/>
<path d="M255.139 196.226H182.717V237.517H255.139V196.226Z" fill="#E5E5E5" stroke="#263238" stroke-linecap="round" stroke-linejoin="round"/>
<path d="M255.145 196.226H208.277V237.517H255.145V196.226Z" fill="#E5E5E5" stroke="#263238" stroke-linecap="round" stroke-linejoin="round"/>
<path d="M255.139 196.226H226.619V237.517H255.139V196.226Z" fill="white" stroke="#263238" stroke-linecap="round" stroke-linejoin="round"/>
<path d="M255.145 196.226H230.212V237.517H255.145V196.226Z" fill="#E5E5E5" stroke="#263238" stroke-linecap="round" stroke-linejoin="round"/>
<path d="M297.782 240.973H273.907V289.212H297.782V240.973Z" fill="#263238" stroke="#263238" stroke-linecap="round" stroke-linejoin="round"/>
<path d="M276.686 240.973H116.242V289.212H276.686V240.973Z" fill="white" stroke="#263238" stroke-linecap="round" stroke-linejoin="round"/>
<path d="M273.099 244.284H119.923V285.575H273.099V244.284Z" fill="#E5E5E5" stroke="#263238" stroke-linecap="round" stroke-linejoin="round"/>
<path d="M273.099 244.284H162.911V285.575H273.099V244.284Z" fill="#E5E5E5" stroke="#263238" stroke-linecap="round" stroke-linejoin="round"/>
<path d="M273.099 244.284H175.706V285.575H273.099V244.284Z" fill="white" stroke="#263238" stroke-linecap="round" stroke-linejoin="round"/>
<path d="M273.099 244.284H179.293V285.575H273.099V244.284Z" fill="#E5E5E5" stroke="#263238" stroke-linecap="round" stroke-linejoin="round"/>
<path d="M273.099 244.284H203.075V285.575H273.099V244.284Z" fill="#E5E5E5" stroke="#263238" stroke-linecap="round" stroke-linejoin="round"/>
<path d="M273.093 244.284H224.622V285.575H273.093V244.284Z" fill="white" stroke="#263238" stroke-linecap="round" stroke-linejoin="round"/>
<path d="M273.099 244.284H228.666V285.575H273.099V244.284Z" fill="#E5E5E5" stroke="#263238" stroke-linecap="round" stroke-linejoin="round"/>
<path d="M273.099 244.284H252.197V285.575H273.099V244.284Z" fill="#E5E5E5" stroke="#263238" stroke-linecap="round" stroke-linejoin="round"/>
<path d="M271.177 165.708L278.927 192.695H263.966L271.177 165.708Z" fill="#787878" stroke="#263238" stroke-linecap="round" stroke-linejoin="round"/>
<path d="M271.772 162.861L270.783 161.965L245.136 192.696H266.251L271.772 162.861Z" fill="white" stroke="#263238" stroke-linecap="round" stroke-linejoin="round"/>
<path d="M270.783 161.965H249.668L244.078 192.696H265.193L270.783 161.965Z" fill="#9DDCFC" stroke="#263238" stroke-linecap="round" stroke-linejoin="round"/>
<path d="M252.472 166.773H265.975" stroke="#263238" stroke-linecap="round" stroke-linejoin="round"/>
<path d="M251.602 170.253H265.105" stroke="#263238" stroke-linecap="round" stroke-linejoin="round"/>
<path d="M250.732 173.74H264.235" stroke="#263238" stroke-linecap="round" stroke-linejoin="round"/>
<path d="M213.735 210.136L221.485 237.129H206.524L213.735 210.136Z" fill="#263238" stroke="#263238" stroke-linecap="round" stroke-linejoin="round"/>
<path d="M214.33 207.288L213.341 206.393L187.694 237.129H208.809L214.33 207.288Z" fill="white" stroke="#263238" stroke-linecap="round" stroke-linejoin="round"/>
<path d="M213.341 206.393H192.226L186.636 237.129H207.751L213.341 206.393Z" fill="#9DDCFC" stroke="#263238" stroke-linecap="round" stroke-linejoin="round"/>
<path d="M194.786 223.852L194.849 223.795L195.131 224.152L198.43 221.404L197.766 220.571L194.555 223.238L194.211 222.312L193.585 223.1L191.613 220.628L190.605 221.46L192.758 224.165L191.506 225.767L189.372 227.545L190.035 228.378L191.131 227.476L190.198 232.052H194.254L195.206 227.345L196.057 228.415L197.065 227.576L195.387 225.467L194.786 223.852ZM195.857 226.938L196.126 226.712L196.458 227.126L196.182 227.351L195.857 226.938ZM196.032 227.482L195.757 227.708L195.431 227.295L195.7 227.069L196.032 227.482ZM195.751 226.813L195.425 226.399L195.7 226.174L196.026 226.587L195.751 226.813ZM191.556 225.942H192.013L191.738 226.168H191.594L191.469 226.011L191.556 225.942ZM192.251 225.942L192.42 226.155H191.995L192.251 225.942ZM191.387 226.218L191.331 226.493L191.005 226.769L190.824 226.543L191.318 226.13L191.387 226.218ZM191.281 226.75L191.218 227.038L191.106 226.894L191.281 226.75ZM190.849 226.894L190.354 227.307L190.173 227.082L190.667 226.669L190.849 226.894ZM190.949 227.025L191.131 227.251L190.636 227.664L190.455 227.432L190.949 227.025ZM192.583 226.043L192.495 225.93H192.721L192.583 226.043ZM194.642 225.93L194.467 226.074L194.348 225.93H194.642ZM194.843 225.98L194.987 226.155H194.624L194.843 225.98ZM195.469 226.155H195.262L195.081 225.93H195.531L195.613 226.036L195.469 226.155ZM195.024 223.651L195.525 223.238L195.707 223.463L195.206 223.883L195.024 223.651ZM196.977 222.03L197.472 221.617L197.654 221.842L197.159 222.255L196.977 222.03ZM196.977 222.38L196.483 222.794L196.301 222.568L196.802 222.155L196.977 222.38ZM196.852 221.898L196.671 221.673L197.165 221.26L197.347 221.492L196.852 221.898ZM196.696 222.03L196.201 222.443L196.02 222.211L196.514 221.805L196.696 222.03ZM196.07 222.568L195.569 222.981L195.394 222.756L195.888 222.343L196.07 222.568ZM196.17 222.693L196.351 222.925L195.857 223.332L195.675 223.107L196.17 222.693ZM197.816 221.729L197.635 221.504L198.023 221.179L198.204 221.404L197.816 221.729ZM197.916 221.053L197.535 221.373L197.353 221.147L197.741 220.828L197.916 221.053ZM195.25 222.894L195.431 223.119L194.93 223.539L194.749 223.313L195.25 222.894ZM194.774 223.664L194.736 223.564L194.774 223.664ZM193.265 223.551L192.965 223.175L193.24 222.95L193.491 223.263L193.265 223.551ZM192.013 221.967L191.682 221.554L191.957 221.329L192.282 221.742L192.013 221.967ZM192.383 221.867L192.714 222.28L192.439 222.506L192.113 222.099L192.383 221.867ZM191.857 222.099L191.581 222.324L191.256 221.911L191.531 221.686L191.857 222.099ZM191.957 222.224L192.289 222.637L192.013 222.862L191.688 222.449L191.957 222.224ZM192.389 222.762L192.714 223.175L192.445 223.401L192.113 222.988L192.389 222.762ZM192.545 222.637L192.815 222.412L193.146 222.819L192.871 223.05L192.545 222.637ZM191.851 221.204L191.581 221.429L191.325 221.11L191.594 220.878L191.851 221.204ZM191.168 221.235L191.425 221.554L191.156 221.786L190.899 221.46L191.168 221.235ZM192.877 223.952L192.545 223.532L192.821 223.307L193.146 223.714L193.115 223.751L192.877 223.952ZM190.016 227.238L190.198 227.464L189.81 227.789L189.634 227.564L190.016 227.238ZM189.916 227.914L190.304 227.595L190.48 227.82L190.098 228.146L189.916 227.914ZM192.702 226.187L192.977 225.961H194.092L194.273 226.187H192.702ZM195.356 226.656L195.6 226.956L195.325 227.188L195.268 227.107L195.356 226.656ZM195.857 227.852L196.132 227.626L196.389 227.952L196.114 228.177L195.857 227.852ZM196.539 227.82L196.283 227.501L196.564 227.238L196.821 227.564L196.539 227.82Z" fill="white"/>
<path d="M205.222 220.928L205.309 220.853L205.697 221.335L210.173 217.61L209.266 216.477L204.884 220.095L204.408 218.843L203.575 219.92L200.946 216.552L199.581 217.685L202.499 221.354L200.802 223.532L197.904 225.936L198.811 227.069L200.289 225.817L199.037 232.027H204.533L205.829 225.642L206.981 227.088L208.345 225.955L206.073 223.094L205.222 220.928ZM206.674 225.116L207.043 224.809L207.488 225.373L207.119 225.679L206.674 225.116ZM206.912 225.848L206.543 226.155L206.098 225.598L206.467 225.291L206.912 225.848ZM206.536 224.947L206.092 224.383L206.461 224.077L206.906 224.64L206.536 224.947ZM200.846 223.764H201.472L201.103 224.07H200.909L200.74 223.864L200.846 223.764ZM201.785 223.764L202.017 224.052H201.434L201.785 223.764ZM200.614 224.133L200.539 224.515L200.095 224.884L199.851 224.577L200.52 224.014L200.614 224.133ZM200.464 224.859L200.389 225.254L200.233 225.053L200.464 224.859ZM199.882 225.053L199.212 225.617L198.968 225.304L199.638 224.747L199.882 225.053ZM200.026 225.229L200.27 225.535L199.594 226.092L199.35 225.786L200.026 225.229ZM202.236 223.901L202.117 223.745H202.424L202.236 223.901ZM205.028 223.745L204.79 223.945L204.633 223.745H205.028ZM205.297 223.808L205.497 224.052H205.003L205.297 223.808ZM206.123 224.052H205.841L205.597 223.745H206.223L206.336 223.889L206.123 224.052ZM205.497 220.659L206.18 220.089L206.424 220.396L205.741 220.965L205.497 220.659ZM208.145 218.455L208.821 217.898L209.065 218.205L208.396 218.762L208.145 218.455ZM208.183 218.937L207.513 219.494L207.269 219.188L207.939 218.63L208.183 218.937ZM208.007 218.311L207.763 218.004L208.433 217.447L208.684 217.754L208.007 218.311ZM207.832 218.474L207.162 219.031L206.918 218.724L207.588 218.167L207.832 218.474ZM206.949 219.206L206.28 219.764L206.036 219.457L206.705 218.9L206.949 219.206ZM207.087 219.375L207.338 219.688L206.662 220.246L206.417 219.939L207.087 219.375ZM209.303 218.048L209.059 217.742L209.585 217.303L209.829 217.61L209.303 218.048ZM209.447 217.128L208.921 217.566L208.677 217.26L209.203 216.821L209.447 217.128ZM205.829 219.632L206.073 219.939L205.391 220.502L205.147 220.195L205.829 219.632ZM205.203 220.678H205.172L205.122 220.546L205.203 220.678ZM203.162 220.521L202.755 220.014L203.125 219.707L203.463 220.133L203.162 220.521ZM201.447 218.374L200.946 217.848L201.315 217.541L201.76 218.098L201.447 218.374ZM201.96 218.242L202.405 218.8L202.035 219.106L201.585 218.549L201.96 218.242ZM201.24 218.549L200.871 218.856L200.427 218.299L200.796 217.992L201.24 218.549ZM201.378 218.724L201.823 219.282L201.453 219.588L201.009 219.031L201.378 218.724ZM201.96 219.451L202.405 220.014L202.035 220.321L201.591 219.764L201.96 219.451ZM202.173 219.282L202.542 218.975L202.987 219.532L202.618 219.839L202.173 219.282ZM201.234 217.335L200.865 217.641L200.52 217.209L200.89 216.896L201.234 217.335ZM200.308 217.378L200.658 217.817L200.289 218.123L199.938 217.685L200.308 217.378ZM202.63 221.059L202.173 220.49L202.542 220.183L202.987 220.74L202.943 220.796L202.63 221.059ZM198.793 225.498L199.037 225.804L198.511 226.243L198.267 225.936L198.793 225.498ZM198.649 226.418L199.175 225.98L199.419 226.286L198.893 226.725L198.649 226.418ZM202.405 224.07L202.774 223.764H204.295L204.539 224.07H202.405ZM206.004 224.696L206.336 225.103L205.967 225.416L205.879 225.31L206.004 224.696ZM206.687 226.318L207.056 226.011L207.406 226.449L207.037 226.756L206.687 226.318ZM207.613 226.274L207.262 225.836L207.632 225.529L207.982 225.967L207.613 226.274Z" fill="white"/>
<path d="M211.238 214.03C211.2 213.566 210.568 213.191 209.742 213.128C209.771 212.999 209.787 212.866 209.792 212.734C209.792 211.338 208.44 210.23 206.768 210.23C206.11 210.191 205.458 210.376 204.919 210.756C204.38 211.136 203.986 211.688 203.801 212.321C203.695 212.314 203.588 212.314 203.482 212.321C203.087 212.292 202.695 212.401 202.372 212.629C202.049 212.858 201.815 213.191 201.71 213.573C201.404 213.305 201.012 213.157 200.605 213.157C200.199 213.157 199.806 213.305 199.5 213.573C199.216 213.486 198.921 213.444 198.624 213.447C197.91 213.447 197.328 213.654 197.328 213.911C197.334 213.969 197.364 214.023 197.41 214.061L211.238 214.03Z" fill="white"/>
<path d="M198.862 216.095C198.862 215.889 198.568 215.726 198.204 215.695C198.208 215.638 198.208 215.582 198.204 215.526C198.17 215.205 198.012 214.909 197.765 214.702C197.518 214.494 197.2 214.39 196.877 214.411C196.587 214.394 196.3 214.476 196.062 214.643C195.825 214.81 195.651 215.053 195.569 215.332H195.431C195.257 215.319 195.085 215.367 194.942 215.468C194.799 215.568 194.696 215.715 194.649 215.882C194.515 215.764 194.342 215.699 194.164 215.699C193.985 215.699 193.812 215.764 193.679 215.882C193.552 215.847 193.421 215.83 193.29 215.832C192.977 215.832 192.721 215.92 192.721 216.033C192.722 216.046 192.725 216.059 192.732 216.071C192.738 216.083 192.747 216.094 192.758 216.102L198.862 216.095Z" fill="white"/>
<path d="M212.152 258.375L219.902 285.369H204.934L212.152 258.375Z" fill="#263238" stroke="#263238" stroke-linecap="round" stroke-linejoin="round"/>
<path d="M212.74 255.527L211.751 254.632L186.104 285.368H207.219L212.74 255.527Z" fill="white" stroke="#263238" stroke-linecap="round" stroke-linejoin="round"/>
<path d="M211.751 254.632H190.642L185.052 285.368H206.167L211.751 254.632Z" fill="white" stroke="#263238" stroke-linecap="round" stroke-linejoin="round"/>
<path d="M206.511 262.513H192.214L188.426 283.328H202.73L206.511 262.513Z" fill="#9DDCFC"/>
<path d="M193.247 257.899L192.658 261.117H206.962L207.544 257.899H193.247Z" fill="#9DDCFC"/>
<path d="M166.134 258.375L173.884 285.369H158.917L166.134 258.375Z" fill="#263238" stroke="#263238" stroke-linecap="round" stroke-linejoin="round"/>
<path d="M166.723 255.527L165.734 254.632L140.086 285.368H161.201L166.723 255.527Z" fill="white" stroke="#263238" stroke-linecap="round" stroke-linejoin="round"/>
<path d="M165.734 254.632H144.625L139.035 285.368H160.15L165.734 254.632Z" fill="white" stroke="#263238" stroke-linecap="round" stroke-linejoin="round"/>
<path d="M157.946 265.662C157.691 266.559 157.26 267.397 156.68 268.127C156.1 268.858 155.382 269.467 154.566 269.919C151.811 271.421 147.555 269.293 144.168 272.304C140.781 275.315 140.662 281.694 147.805 282.445C154.948 283.196 156.444 277.813 156.444 277.813C156.444 277.813 159.705 278.439 159.574 277.437C159.442 276.435 157.314 275.684 157.314 275.684C158.253 274.122 158.812 272.362 158.948 270.545C159.029 267.853 158.948 266.037 158.948 266.037C158.948 266.037 160.701 266.413 161.327 266.037C161.953 265.662 163.205 262.156 163.205 262.156C163.205 262.156 161.076 263.659 160.075 263.659C159.073 263.659 156.438 261.53 156.438 261.53C156.438 261.53 155.943 265.662 157.946 265.662Z" fill="#9DDCFC"/>
<path d="M145.852 257.687L145.27 260.905H159.568L160.156 257.687H145.852Z" fill="#9DDCFC"/>
<path d="M145.007 262.344L144.425 265.556H153.014L153.596 262.344H145.007Z" fill="#9DDCFC"/>
<path d="M259.753 258.375L267.502 285.369H252.541L259.753 258.375Z" fill="#263238" stroke="#263238" stroke-linecap="round" stroke-linejoin="round"/>
<path d="M260.347 255.527L259.358 254.632L233.711 285.368H254.82L260.347 255.527Z" fill="white" stroke="#263238" stroke-linecap="round" stroke-linejoin="round"/>
<path d="M259.358 254.632H238.243L232.653 285.368H253.768L259.358 254.632Z" fill="#9DDCFC" stroke="#263238" stroke-linecap="round" stroke-linejoin="round"/>
<path d="M243.827 263.628C243.88 264.17 243.768 264.715 243.505 265.193C243.242 265.67 242.841 266.056 242.354 266.301C241.867 266.546 241.318 266.637 240.778 266.564C240.238 266.49 239.733 266.255 239.33 265.889C238.926 265.523 238.643 265.044 238.517 264.513C238.391 263.983 238.429 263.428 238.625 262.919C238.821 262.411 239.166 261.974 239.615 261.666C240.065 261.357 240.597 261.192 241.142 261.192C241.82 261.16 242.484 261.398 242.988 261.855C243.491 262.311 243.793 262.949 243.827 263.628Z" fill="white"/>
<path d="M249.586 268.103C249.642 268.647 249.532 269.195 249.269 269.675C249.007 270.155 248.606 270.544 248.118 270.791C247.63 271.038 247.079 271.132 246.537 271.059C245.995 270.986 245.488 270.751 245.082 270.384C244.677 270.018 244.392 269.536 244.265 269.004C244.139 268.472 244.176 267.915 244.373 267.404C244.57 266.894 244.917 266.456 245.369 266.147C245.82 265.838 246.354 265.673 246.901 265.674C247.579 265.642 248.242 265.879 248.745 266.334C249.248 266.79 249.551 267.426 249.586 268.103Z" fill="white"/>
<path d="M253.53 264.416C253.575 264.868 253.481 265.322 253.262 265.72C253.043 266.117 252.71 266.439 252.304 266.643C251.899 266.847 251.442 266.923 250.992 266.863C250.543 266.802 250.122 266.606 249.786 266.302C249.449 265.997 249.213 265.598 249.108 265.157C249.002 264.716 249.033 264.253 249.196 263.83C249.359 263.406 249.646 263.042 250.019 262.785C250.393 262.527 250.836 262.389 251.289 262.388C251.855 262.361 252.409 262.559 252.829 262.939C253.249 263.319 253.501 263.851 253.53 264.416Z" fill="white"/>
<path d="M241.592 280.185C244.382 280.185 246.644 278.139 246.644 275.615C246.644 273.091 244.382 271.045 241.592 271.045C238.802 271.045 236.541 273.091 236.541 275.615C236.541 278.139 238.802 280.185 241.592 280.185Z" fill="white"/>
<path d="M159.255 205.322H156.356V237.561H159.255V205.322Z" fill="#9DDCFC" stroke="#263238" stroke-linecap="round" stroke-linejoin="round"/>
<path d="M174.31 205.322H158.479V237.561H174.31V205.322Z" fill="#9DDCFC" stroke="#263238" stroke-linecap="round" stroke-linejoin="round"/>
<path d="M162.535 205.322H159.637V237.561H162.535V205.322Z" fill="white" stroke="#263238" stroke-linecap="round" stroke-linejoin="round"/>
<path d="M177.597 205.322H161.765V237.561H177.597V205.322Z" fill="white" stroke="#263238" stroke-linecap="round" stroke-linejoin="round"/>
<path d="M165.821 205.322H162.923V237.561H165.821V205.322Z" fill="white" stroke="#263238" stroke-linecap="round" stroke-linejoin="round"/>
<path d="M178.942 205.322H165.045V237.561H178.942V205.322Z" fill="white" stroke="#263238" stroke-linecap="round" stroke-linejoin="round"/>
<path d="M169.102 205.322H166.203V237.561H169.102V205.322Z" fill="#9DDCFC" stroke="#263238" stroke-linecap="round" stroke-linejoin="round"/>
<path d="M179.136 205.322H168.325V237.561H179.136V205.322Z" fill="#9DDCFC" stroke="#263238" stroke-linecap="round" stroke-linejoin="round"/>
<path d="M233.58 205.322H230.681V237.561H233.58V205.322Z" fill="white" stroke="#263238" stroke-linecap="round" stroke-linejoin="round"/>
<path d="M248.641 205.322H232.81V237.561H248.641V205.322Z" fill="white" stroke="#263238" stroke-linecap="round" stroke-linejoin="round"/>
<path d="M236.866 205.322H233.968V237.561H236.866V205.322Z" fill="#9DDCFC" stroke="#263238" stroke-linecap="round" stroke-linejoin="round"/>
<path d="M251.921 205.322H236.09V237.561H251.921V205.322Z" fill="#9DDCFC" stroke="#263238" stroke-linecap="round" stroke-linejoin="round"/>
<path d="M240.146 205.322H237.248V237.561H240.146V205.322Z" fill="#9DDCFC" stroke="#263238" stroke-linecap="round" stroke-linejoin="round"/>
<path d="M253.267 205.322H239.37V237.561H253.267V205.322Z" fill="#9DDCFC" stroke="#263238" stroke-linecap="round" stroke-linejoin="round"/>
<path d="M243.427 205.322H240.528V237.561H243.427V205.322Z" fill="white" stroke="#263238" stroke-linecap="round" stroke-linejoin="round"/>
<path d="M255.208 205.322H242.657V237.561H255.208V205.322Z" fill="white" stroke="#263238" stroke-linecap="round" stroke-linejoin="round"/>
<path d="M189.659 173.108H179.236V189.215H189.659V173.108Z" fill="white" stroke="#263238" stroke-linecap="round" stroke-linejoin="round"/>
<path d="M187.437 173.108H177.014V189.215H187.437V173.108Z" fill="white" stroke="#263238" stroke-linecap="round" stroke-linejoin="round"/>
<path d="M215.495 182.817H193.704V189.215H215.495V182.817Z" fill="white" stroke="#263238" stroke-linecap="round" stroke-linejoin="round"/>
<path d="M215.501 180.376H192.927V184.877H215.501V180.376Z" fill="#263238" stroke="#263238" stroke-linecap="round" stroke-linejoin="round"/>
<path d="M228.847 182.817H215.582V189.215H228.847V182.817Z" fill="white" stroke="#263238" stroke-linecap="round" stroke-linejoin="round"/>
<path d="M229.967 180.376H215.582V184.877H229.967V180.376Z" fill="#263238" stroke="#263238" stroke-linecap="round" stroke-linejoin="round"/>
<path d="M216.152 164.851H178.617V167.311H216.152V164.851Z" fill="#263238" stroke="#263238" stroke-linecap="round" stroke-linejoin="round"/>
<path d="M217.71 164.851H201.497V167.311H217.71V164.851Z" fill="white" stroke="#263238" stroke-linecap="round" stroke-linejoin="round"/>
<path d="M216.152 162.341H178.617V164.801H216.152V162.341Z" fill="white" stroke="#263238" stroke-linecap="round" stroke-linejoin="round"/>
<path d="M217.71 162.341H201.497V164.801H217.71V162.341Z" fill="white" stroke="#263238" stroke-linecap="round" stroke-linejoin="round"/>
<path d="M216.152 159.824H178.617V162.284H216.152V159.824Z" fill="#9DDCFC" stroke="#263238" stroke-linecap="round" stroke-linejoin="round"/>
<path d="M217.71 159.824H201.497V162.284H217.71V159.824Z" fill="white" stroke="#263238" stroke-linecap="round" stroke-linejoin="round"/>
<path d="M216.152 157.314H178.617V159.774H216.152V157.314Z" fill="white" stroke="#263238" stroke-linecap="round" stroke-linejoin="round"/>
<path d="M217.71 157.314H201.497V159.774H217.71V157.314Z" fill="white" stroke="#263238" stroke-linecap="round" stroke-linejoin="round"/>
<path d="M216.152 154.797H178.617V157.258H216.152V154.797Z" fill="#9DDCFC" stroke="#263238" stroke-linecap="round" stroke-linejoin="round"/>
<path d="M217.71 154.797H201.497V157.258H217.71V154.797Z" fill="white" stroke="#263238" stroke-linecap="round" stroke-linejoin="round"/>
<path d="M35.5319 218.649C35.5319 218.649 37.3661 227.971 37.3661 231.464C37.3661 234.957 35.0562 241.279 35.0562 248.773C35.0562 256.266 37.1971 276.066 37.1971 276.066L45.1848 276.398C45.1848 276.398 47.5136 252.103 50.0113 246.444C52.509 240.785 53.5044 228.966 53.5044 225.636C53.5928 223.209 53.984 220.803 54.6687 218.474L35.5319 218.649Z" fill="#263238" stroke="#263238" stroke-linecap="round" stroke-linejoin="round"/>
<path d="M33.5347 269.906H46.8497L46.6807 280.229C46.6807 280.229 54.3366 285.055 56.1708 285.719C58.005 286.383 59.0003 287.885 58.8313 288.38C58.6623 288.874 57.836 289.212 57.836 289.212H34.868C34.3829 287.884 34.2115 286.461 34.3672 285.055C34.6224 283.693 35.0125 282.359 35.5316 281.074L33.5347 269.906Z" fill="#9DDCFC" stroke="#263238" stroke-linecap="round" stroke-linejoin="round"/>
<path d="M39.8196 218.649C39.8196 218.649 41.6476 227.971 41.6476 231.464C41.6476 234.957 39.3188 241.279 39.3188 248.773C39.3188 256.266 41.4848 276.066 41.4848 276.066L49.4726 276.398C49.4726 276.398 51.8013 252.103 54.299 246.444C56.7968 240.785 57.7921 228.966 57.7921 225.636C57.8806 223.209 58.2717 220.803 58.9565 218.474L39.8196 218.649Z" fill="#263238" stroke="#263238" stroke-linecap="round" stroke-linejoin="round"/>
<path d="M59.1695 142.421C59.1695 142.421 64.3277 176.544 66.1619 182.867C67.9961 189.19 75.12 216.815 75.12 216.815C68.6325 219.641 61.709 221.335 54.6498 221.823C42.8371 222.656 27.5252 221.654 23.0305 219.657C18.5358 217.66 15.3745 216.333 15.3745 216.333L20.201 191.7C20.201 191.7 30.6865 162.24 30.6865 155.586C30.6865 148.932 30.048 142.102 33.8728 137.094C37.6977 132.086 42.1924 129.77 45.3537 130.765C48.5149 131.76 59.1695 142.421 59.1695 142.421Z" fill="#ABABAB"/>
<path d="M69.4862 195.199C69.4361 194.999 69.3798 194.799 69.3297 194.573C68.2217 194.849 67.1199 195.112 66.0307 195.343L67.5268 192.263L69.2671 194.329C69.1356 193.847 69.0104 193.371 68.8852 192.908L67.9024 191.731C68.109 191.688 68.3218 191.631 68.5284 191.575C68.4721 191.375 68.422 191.174 68.3656 190.949C46.656 196.188 29.4034 193.196 20.5392 190.711C20.3327 191.306 20.2137 191.637 20.2137 191.637L20.1323 192.051L21.5095 194.805C20.8835 194.636 20.2575 194.461 19.6941 194.298L19.5752 194.924C27.6625 197.234 36.0356 198.388 44.4462 198.354C52.8909 198.337 61.3011 197.277 69.4862 195.199ZM66.9822 191.969L65.4485 195.099L62.8506 192.783C64.2194 192.553 65.5966 192.282 66.9822 191.969ZM65.0165 195.587C63.1385 195.976 61.3044 196.301 59.5015 196.577L62.4312 193.284L65.0165 195.587ZM61.8427 193.002L58.8379 196.382L56.841 193.753C58.4853 193.54 60.1567 193.29 61.8552 193.002H61.8427ZM58.3309 196.758C56.2588 197.046 54.2493 197.265 52.29 197.422L56.3402 194.06L58.3309 196.758ZM55.5264 193.91L51.6389 197.152L48.3149 194.454C50.6436 194.361 53.0537 194.179 55.5389 193.904L55.5264 193.91ZM20.4704 191.406C21.929 191.813 23.6004 192.232 25.4784 192.626L22.1293 194.755L20.4704 191.406ZM22.6614 195.162L25.6411 193.284L27.8509 196.295C25.9667 195.938 24.2326 195.537 22.6864 195.156L22.6614 195.162ZM26.023 192.727C27.901 193.109 29.9918 193.465 32.283 193.76L28.6209 196.232L26.023 192.727ZM29.2845 196.52L32.6336 194.26L35.7135 197.34C33.4348 197.121 31.3002 196.839 29.3095 196.514L29.2845 196.52ZM33.1782 193.86C35.0562 194.085 37.0406 194.26 39.1377 194.379L36.3082 197.002L33.1782 193.86ZM36.7902 197.422L39.5759 194.83L42.9626 197.716C40.7778 197.685 38.7183 197.578 36.7652 197.422H36.7902ZM40.0642 194.423C41.4915 194.486 42.9626 194.53 44.4837 194.53C45.1974 194.53 45.9235 194.53 46.6622 194.498L43.382 197.253L40.0642 194.423ZM47.5324 194.592L51.1256 197.503C48.5715 197.678 46.1176 197.741 43.7889 197.728L47.5324 194.592Z" fill="white"/>
<path d="M73.3421 209.867C73.2482 209.504 73.148 209.134 73.0541 208.759L71.2888 206.612L72.4093 206.292C72.353 206.092 72.3029 205.892 72.2528 205.666C71.7458 205.804 71.2387 205.954 70.7379 206.086C70.7069 206.08 70.675 206.08 70.644 206.086C70.6086 206.101 70.575 206.12 70.5438 206.142C44.9279 212.89 25.1901 208.07 17.5154 205.516L17.3902 206.142C18.1101 206.38 18.9239 206.637 19.8441 206.9L16.9019 209.153H16.8205L16.6953 209.779C16.7339 209.816 16.7815 209.841 16.8331 209.853C16.8848 209.865 16.9388 209.864 16.9895 209.848C21.7221 211.457 31.3875 214.061 44.4709 214.061C54.2444 214.033 63.9647 212.621 73.3421 209.867ZM70.8756 207.1L72.7536 209.379C71.8897 209.629 71.0259 209.867 70.1745 210.086L70.8756 207.1ZM70.2872 206.875L69.6612 209.541L67.9084 207.463C68.6971 207.275 69.4859 207.081 70.2872 206.875ZM69.4483 210.267C68.3028 210.562 67.1634 210.825 66.0366 211.075L67.5328 207.989L69.4483 210.267ZM66.9819 207.67L65.4482 210.837L62.8503 208.521C64.2212 208.271 65.5984 207.983 66.9819 207.67ZM65.0163 211.288C63.1383 211.676 61.3041 212.008 59.5012 212.277L62.4309 208.984L65.0163 211.288ZM61.8424 208.702L58.8376 212.083L56.8407 209.454C58.485 209.249 60.1564 208.999 61.8549 208.702H61.8424ZM58.3306 212.458C56.2585 212.746 54.2491 212.966 52.2897 213.122L56.3399 209.773L58.3306 212.458ZM55.5261 209.61L51.6512 212.84L48.3271 210.149C50.6433 210.061 53.0534 209.879 55.5386 209.604L55.5261 209.61ZM17.5905 209.404L20.0319 207.557L21.528 210.555C19.9943 210.155 18.686 209.754 17.603 209.397L17.5905 209.404ZM20.4826 207.106C21.9412 207.507 23.6126 207.926 25.4906 208.321L22.1415 210.449L20.4826 207.106ZM22.6736 210.862L25.6534 208.984L27.8632 211.995C25.9664 211.62 24.2324 211.244 22.6861 210.856L22.6736 210.862ZM26.0352 208.427C27.9132 208.815 30.0041 209.166 32.2952 209.46L28.6331 211.964L26.0352 208.427ZM29.3092 212.214L32.6583 209.954L35.7382 213.034C33.4346 212.84 31.2999 212.54 29.3092 212.214ZM33.1779 209.56C35.0559 209.785 37.0403 209.967 39.1374 210.08L36.3079 212.703L33.1779 209.56ZM36.7899 213.122L39.5756 210.53L42.9623 213.422C40.7775 213.385 38.718 213.279 36.7649 213.122H36.7899ZM40.0639 210.123C41.4912 210.19 42.9644 210.226 44.4835 210.23C45.1971 210.23 45.9233 210.23 46.6619 210.23L43.3817 212.978L40.0639 210.123ZM47.5321 210.292L51.1253 213.203C48.5712 213.379 46.1173 213.441 43.7886 213.429L47.5321 210.292Z" fill="white"/>
<path d="M74.7005 215.094L74.544 214.468C50.3742 222.919 23.1307 216.571 15.7439 214.555L15.6187 215.181C25.8858 217.909 36.4584 219.318 47.0814 219.376C55.8955 219.382 65.5171 218.293 74.7005 215.094Z" fill="white"/>
<path d="M16.0818 212.84L15.9629 213.466C26.1228 216.132 36.5777 217.51 47.0814 217.567C55.7577 217.567 65.2353 216.509 74.2623 213.429C74.2122 213.235 74.1621 213.028 74.1058 212.803C50.4054 220.909 23.8881 214.931 16.0818 212.84Z" fill="white"/>
<path d="M71.364 202.323C71.3076 202.123 71.2575 201.923 71.2075 201.697C49.9986 208.771 25.5095 204.126 18.1102 202.43L17.9912 203.056C26.9388 205.063 36.0774 206.096 45.2473 206.136C53.5918 206.148 62.7502 205.197 71.364 202.323Z" fill="white"/>
<path d="M71.0321 201.04C70.982 200.84 70.9256 200.639 70.8756 200.414C49.9859 207.256 26.0414 202.83 18.3792 201.096L18.2603 201.722C27.1241 203.692 36.1735 204.705 45.2534 204.746C53.4853 204.759 62.5122 203.826 71.0321 201.04Z" fill="white"/>
<path d="M59.1695 142.421C59.1695 142.421 64.3277 176.544 66.1619 182.867C67.9961 189.19 75.12 216.815 75.12 216.815C68.6325 219.641 61.709 221.335 54.6498 221.823C42.8371 222.656 27.5252 221.654 23.0305 219.657C18.5358 217.66 15.3745 216.333 15.3745 216.333L20.201 191.7C20.201 191.7 30.6865 162.24 30.6865 155.586C30.6865 148.932 30.048 142.102 33.8728 137.094C37.6977 132.086 42.1924 129.77 45.3537 130.765C48.515 131.76 59.1695 142.421 59.1695 142.421Z" stroke="#263238" stroke-linecap="round" stroke-linejoin="round"/>
<path d="M37.8228 269.906H51.1378L50.9688 280.229C50.9688 280.229 58.6247 285.055 60.4589 285.719C62.2931 286.383 63.2884 287.885 63.1194 288.38C62.9504 288.874 62.1241 289.212 62.1241 289.212H39.1561C38.6709 287.884 38.4995 286.461 38.6553 285.055C38.9105 283.693 39.3006 282.359 39.8197 281.074L37.8228 269.906Z" fill="#9DDCFC" stroke="#263238" stroke-linecap="round" stroke-linejoin="round"/>
<path d="M40.3644 127.779C40.3644 127.779 31.2123 134.271 29.0463 141.426C26.8804 148.581 26.2168 161.896 25.716 164.895C25.2152 167.894 17.3965 195.513 17.3965 195.513C17.3965 195.513 23.8881 200.007 35.3689 201.147C46.8498 202.286 59.5012 199.481 60.002 199.481C60.5028 199.481 55.8391 142.102 56.0082 141.595C56.1772 141.088 46.687 130.108 45.0219 128.612C43.3567 127.116 40.3644 127.779 40.3644 127.779Z" fill="white" stroke="#263238" stroke-linecap="round" stroke-linejoin="round"/>
<path d="M60.9036 116.736C60.9036 116.736 61.129 122.928 62.2746 124.993C63.4202 127.059 63.1948 129.119 60.215 128.43C57.2353 127.742 53.329 121.544 52.8783 117.882C52.4276 114.22 59.0695 112.38 60.9036 116.736Z" fill="#263238" stroke="#263238" stroke-linecap="round" stroke-linejoin="round"/>
<path d="M55.7139 135.942L61.0787 181.071L70.8318 179.925L59.3947 135.742C59.3947 135.742 57.0911 132.8 55.7139 135.942Z" fill="#9DDCFC" stroke="#263238" stroke-linecap="round" stroke-linejoin="round"/>
<path d="M61.0161 97.4935C61.7172 98.8063 62.332 100.163 62.8565 101.556C63.4011 103.203 63.3072 106.258 63.4825 106.758C63.6578 107.259 66.1054 110.208 66.118 110.802C66.1305 111.397 63.8957 112.568 63.8957 112.568C63.8957 112.568 63.3072 116.643 62.8815 118.364C62.4559 120.086 62.531 121.05 60.2711 121.012C58.0113 120.975 54.9376 120.08 51.1065 118.095C47.2754 116.111 44.4271 113.219 43.6884 109.269C42.9497 105.319 53.2098 97.6563 54.7185 96.6297C56.2272 95.603 61.0161 97.4935 61.0161 97.4935Z" fill="white" stroke="#263238" stroke-linecap="round" stroke-linejoin="round"/>
<path d="M62.0054 106.846C61.9678 107.622 61.6798 108.242 61.3794 108.229C61.0789 108.217 60.8285 107.566 60.866 106.789C60.9036 106.013 61.1978 105.387 61.492 105.4C61.7863 105.412 62.0429 106.063 62.0054 106.846Z" fill="#263238"/>
<path d="M59.3071 104.949C59.3071 104.949 60.4277 102.082 62.1742 103.071" stroke="#263238" stroke-linecap="round" stroke-linejoin="round"/>
<path d="M63.295 114.039C63.295 114.039 61.1791 114.909 60.0586 113.168" stroke="#263238" stroke-linecap="round" stroke-linejoin="round"/>
<path d="M42.105 120.655C42.105 120.655 61.6674 125.713 61.3482 128.005C61.0289 130.296 60.5532 136.975 57.9928 137.313C55.4325 137.651 35.9764 130.208 34.5178 129.739C33.0593 129.269 35.701 122.583 37.1658 120.899C38.6306 119.216 42.105 120.655 42.105 120.655Z" fill="#9DDCFC" stroke="#263238" stroke-linecap="round" stroke-linejoin="round"/>
<path d="M52.3835 103.046C52.3835 103.046 54.5619 117.444 57.1285 123.235C59.6951 129.025 62.3494 130.621 61.3728 131.748C60.3963 132.875 54.7623 129.244 54.7623 129.244C54.7623 129.244 59.5699 136.08 56.3773 137.939C53.1847 139.798 45.0718 135.805 43.3503 134.34L41.6663 132.875C41.6663 132.875 41.128 137.257 35.5691 139.899C30.0102 142.54 22.348 137.983 27.3435 131.761C32.3389 125.538 34.4173 118.389 33.5346 114.076C32.6519 109.763 47.1313 98.1945 52.3835 103.046Z" fill="#263238" stroke="#263238" stroke-linecap="round" stroke-linejoin="round"/>
<path d="M36.6963 150.409C37.9483 153.226 40.7215 155.78 42.8248 157.996C46.1802 161.533 50.1741 164.256 53.6797 167.612C54.3057 168.238 61.2292 174.228 62.0555 173.872C62.0555 173.872 68.9415 170.742 73.793 166.272C78.6445 161.802 90.6951 147.98 90.6951 147.98C93.6999 147.198 98.495 143.154 98.495 143.154L102.952 142.565C103.091 142.536 103.215 142.456 103.298 142.341C103.382 142.226 103.42 142.084 103.406 141.942C103.391 141.801 103.324 141.67 103.218 141.574C103.113 141.479 102.976 141.426 102.833 141.426L98.6953 141.752L104.329 138.816C104.394 138.782 104.452 138.736 104.499 138.68C104.546 138.624 104.582 138.559 104.604 138.489C104.626 138.419 104.634 138.346 104.628 138.273C104.622 138.2 104.601 138.129 104.567 138.064C104.508 137.956 104.414 137.871 104.301 137.821C104.188 137.771 104.061 137.76 103.941 137.789L97.9066 139.354L103.034 136.543C103.184 136.46 103.295 136.321 103.342 136.156C103.39 135.991 103.37 135.814 103.287 135.664C103.204 135.513 103.065 135.402 102.9 135.355C102.735 135.307 102.558 135.327 102.408 135.41L96.5231 138.352L99.4403 135.848L100.417 134.628C100.474 134.539 100.5 134.434 100.491 134.329C100.481 134.224 100.437 134.124 100.366 134.047C100.294 133.97 100.199 133.918 100.095 133.901C99.9906 133.884 99.8837 133.901 99.7908 133.952L98.6265 134.815C96.5043 136.424 91.4212 140.293 90.9454 140.925C90.3195 141.726 87.2959 145.195 87.2959 145.195C87.2959 145.195 82.1189 149.332 75.2141 154.165C71.9775 156.522 68.5688 158.634 65.0165 160.481C62.9132 157.833 56.5906 149.708 54.0991 144.731C52.2179 141.093 49.0921 138.251 45.2913 136.725" fill="white"/>
<path d="M36.6963 150.409C37.9483 153.226 40.7215 155.78 42.8248 157.996C46.1802 161.533 50.1741 164.256 53.6797 167.612C54.3057 168.238 61.2292 174.228 62.0555 173.872C62.0555 173.872 68.9415 170.742 73.793 166.272C78.6445 161.802 90.6951 147.98 90.6951 147.98C93.6999 147.198 98.495 143.154 98.495 143.154L102.952 142.565C103.091 142.536 103.215 142.456 103.298 142.341C103.382 142.226 103.42 142.084 103.406 141.942C103.391 141.801 103.324 141.67 103.218 141.574C103.113 141.479 102.975 141.426 102.833 141.426L98.6953 141.752L104.329 138.816C104.394 138.782 104.452 138.736 104.499 138.68C104.546 138.624 104.582 138.559 104.604 138.489C104.626 138.419 104.634 138.346 104.628 138.273C104.622 138.2 104.601 138.129 104.567 138.064C104.508 137.956 104.414 137.871 104.301 137.821C104.188 137.771 104.061 137.76 103.941 137.789L97.9066 139.354L103.034 136.543C103.184 136.46 103.295 136.321 103.342 136.156C103.39 135.991 103.37 135.814 103.287 135.664C103.204 135.513 103.065 135.402 102.9 135.355C102.735 135.307 102.558 135.327 102.408 135.41L96.5231 138.352L99.4403 135.848L100.417 134.628C100.474 134.539 100.5 134.434 100.491 134.329C100.481 134.224 100.437 134.124 100.366 134.047C100.294 133.97 100.199 133.918 100.095 133.901C99.9906 133.884 99.8837 133.901 99.7908 133.952L98.6265 134.815C96.5043 136.424 91.4212 140.293 90.9455 140.925C90.3195 141.726 87.2959 145.195 87.2959 145.195C87.2959 145.195 82.1188 149.332 75.2141 154.165C71.9775 156.522 68.5688 158.634 65.0165 160.481C62.9132 157.833 56.5906 149.708 54.0991 144.731C52.2179 141.093 49.0921 138.251 45.2913 136.725" stroke="#263238" stroke-linecap="round" stroke-linejoin="round"/>
<path d="M103.916 137.777L97.8812 139.342L103.008 136.531C103.158 136.448 103.27 136.309 103.317 136.144C103.365 135.979 103.345 135.802 103.262 135.651C103.179 135.501 103.039 135.39 102.874 135.343C102.71 135.295 102.532 135.315 102.382 135.398L96.4978 138.34L99.4149 135.836L100.392 134.615C100.449 134.527 100.475 134.422 100.465 134.316C100.456 134.211 100.412 134.112 100.34 134.035C100.269 133.957 100.173 133.906 100.069 133.889C99.9652 133.871 99.8584 133.889 99.7655 133.939L98.6011 134.803C96.479 136.412 91.3959 140.281 90.9201 140.913C90.2941 141.714 87.2705 145.182 87.2705 145.182C87.2705 145.182 82.0935 149.32 75.1887 154.153C72.5282 156.031 70.3748 157.396 68.7222 158.391L72.9352 167.017C73.2294 166.761 73.5236 166.504 73.8116 166.235C78.6443 161.753 90.7136 147.943 90.7136 147.943C93.7184 147.16 98.5135 143.117 98.5135 143.117L102.971 142.528C103.11 142.499 103.233 142.419 103.317 142.303C103.401 142.188 103.439 142.046 103.424 141.905C103.409 141.763 103.343 141.632 103.237 141.537C103.131 141.442 102.994 141.389 102.852 141.389L98.7138 141.714L104.348 138.778C104.413 138.745 104.47 138.698 104.518 138.642C104.565 138.586 104.6 138.522 104.622 138.452C104.644 138.382 104.653 138.309 104.646 138.236C104.64 138.163 104.619 138.092 104.586 138.027C104.52 137.914 104.418 137.828 104.296 137.782C104.173 137.736 104.039 137.734 103.916 137.777Z" fill="white" stroke="#263238" stroke-linecap="round" stroke-linejoin="round"/>
<path d="M33.5345 114.089C33.5345 114.089 29.309 114.752 27.0241 112.28C24.7392 109.807 28.32 106.696 31.9821 100.317C35.6442 93.9377 38.0167 87.9156 45.128 86.4132C52.2394 84.9108 60.7781 90.7389 62.6936 92.2976C64.6092 93.8564 64.6405 95.2711 63.7203 95.653C63.7203 95.653 41.1404 104.63 33.7474 115.059" fill="#9DDCFC"/>
<path d="M33.5345 114.089C33.5345 114.089 29.309 114.752 27.0241 112.28C24.7392 109.807 28.32 106.696 31.9821 100.317C35.6442 93.9377 38.0167 87.9156 45.128 86.4132C52.2394 84.9108 60.7781 90.7389 62.6936 92.2976C64.6092 93.8564 64.6405 95.2711 63.7203 95.653C63.7203 95.653 41.1404 104.63 33.7474 115.059" stroke="#263238" stroke-linecap="round" stroke-linejoin="round"/>
<path d="M44.5898 104.573L33.3218 109.506" stroke="#263238" stroke-linecap="round" stroke-linejoin="round"/>
<path d="M33.5283 116.248C33.5283 116.248 43.1937 107.76 52.3959 103.947C61.5981 100.135 65.1037 99.7782 65.1037 98.5136C65.1037 97.2491 63.7391 95.6528 63.7391 95.6528C63.7391 95.6528 48.7839 101.287 42.8682 105.725C36.9525 110.164 30.0477 113.538 33.5283 116.248Z" fill="#9DDCFC" stroke="#263238" stroke-linecap="round" stroke-linejoin="round"/>
<path d="M13.772 289.212H305.488" stroke="#263238" stroke-linecap="round" stroke-linejoin="round"/>
</svg>
